<?xml version="1.0" encoding="utf-8"?>
<!-- Generator: Adobe Illustrator 27.9.0, SVG Export Plug-In . SVG Version: 6.00 Build 0)  -->
<svg version="1.1" id="Capa_1" xmlns="http://www.w3.org/2000/svg" xmlns:xlink="http://www.w3.org/1999/xlink" x="0px" y="0px"
	 viewBox="0 0 425.2 425.2" style="enable-background:new 0 0 425.2 425.2;" xml:space="preserve">
<style type="text/css">
	.st0{display:none;}
	.st1{display:inline;fill:#6589C2;}
	.st2{display:inline;fill:#FCD033;}
	.st3{display:inline;fill:#6DC1D1;}
	.st4{display:inline;fill:#D8DADE;}
	.st5{display:inline;}
	.st6{fill:#FFFFFF;stroke:#001881;stroke-linecap:round;stroke-linejoin:round;stroke-miterlimit:10;}
	.st7{fill:#D8DADE;}
	.st8{fill:#001881;}
	.st9{fill:#FCD033;}
	.st10{fill:#87B7E0;stroke:#001881;stroke-miterlimit:10;}
	.st11{fill:#87B7E0;}
	.st12{fill:#FFFFFF;}
	.st13{fill:#F09E95;stroke:#001881;stroke-miterlimit:10;}
	.st14{fill:#F09E95;}
	.st15{fill:none;stroke:#001881;stroke-miterlimit:10;}
	.st16{fill:none;stroke:#001881;stroke-linecap:round;stroke-linejoin:round;stroke-miterlimit:10;}
	.st17{fill:#87B7E0;stroke:#001881;stroke-linecap:round;stroke-linejoin:round;stroke-miterlimit:10;}
	.st18{fill:#75B2DF;}
	.st19{fill:#C3C5CA;}
	.st20{fill:#FCD033;stroke:#001881;stroke-miterlimit:10;}
	.st21{fill:none;stroke:#FFFFFF;stroke-linecap:round;stroke-linejoin:round;stroke-miterlimit:10;}
	.st22{display:inline;fill:#FFFFFF;stroke:#001881;stroke-linecap:round;stroke-linejoin:round;stroke-miterlimit:10;}
	.st23{fill:#46868F;}
	.st24{fill:#FCD033;stroke:#001881;stroke-linecap:round;stroke-linejoin:round;stroke-miterlimit:10;}
	.st25{fill:#75B2DF;stroke:#001881;stroke-miterlimit:10;}
	.st26{fill:#FFFFFF;stroke:#001881;stroke-miterlimit:10;}
	.st27{fill:#EB7A2C;stroke:#001881;stroke-miterlimit:10;}
	.st28{fill:#EB7A2C;}
	.st29{fill:none;stroke:#001881;stroke-linecap:round;stroke-linejoin:round;}
	.st30{fill:none;stroke:#001881;stroke-linecap:round;stroke-linejoin:round;stroke-dasharray:0.785,1.5699;}
</style>
<g class="st0">
	<rect class="st1" width="212.6" height="212.6"/>
	<rect x="212.6" class="st2" width="212.6" height="212.6"/>
	<rect y="212.6" class="st3" width="212.6" height="212.6"/>
	<rect x="212.6" y="212.6" class="st4" width="212.6" height="212.6"/>
</g>
<g id="Paquete_de_vectores:_motivo_de_puntos_15" class="st0">
</g>
<g id="Paquete_de_vectores:_motivo_de_puntos_15_1_" class="st0">
</g>
<g id="Paquete_de_vectores:_motivo_de_puntos_03" class="st0">
</g>
<g class="st0">
	<g class="st5">
		<g>
			<rect x="346.7" y="120.2" class="st6" width="55.8" height="44.5"/>
			<rect x="346.7" y="120.2" class="st7" width="27.9" height="44.5"/>
			<g>
				<g>
					<rect x="350.8" y="137" class="st8" width="7.6" height="4.4"/>
					<rect x="360.8" y="137" class="st8" width="7.6" height="4.4"/>
					<rect x="370.8" y="137" class="st8" width="7.6" height="4.4"/>
					<rect x="380.8" y="137" class="st8" width="7.6" height="4.4"/>
					<rect x="390.9" y="137" class="st9" width="7.6" height="4.4"/>
				</g>
				<g>
					<rect x="350.8" y="143.6" class="st8" width="7.6" height="4.4"/>
					<rect x="360.8" y="143.6" class="st8" width="7.6" height="4.4"/>
					<rect x="370.8" y="143.6" class="st8" width="7.6" height="4.4"/>
					<rect x="380.8" y="143.6" class="st8" width="7.6" height="4.4"/>
					<rect x="390.9" y="143.6" class="st9" width="7.6" height="4.4"/>
				</g>
				<g>
					<rect x="350.8" y="150.3" class="st8" width="7.6" height="4.4"/>
					<rect x="360.8" y="150.3" class="st8" width="7.6" height="4.4"/>
					<rect x="370.8" y="150.3" class="st8" width="7.6" height="4.4"/>
					<rect x="380.8" y="150.3" class="st8" width="7.6" height="4.4"/>
					<rect x="390.9" y="150.3" class="st9" width="7.6" height="4.4"/>
				</g>
				<g>
					<rect x="350.8" y="156.9" class="st8" width="7.6" height="4.4"/>
					<rect x="360.8" y="156.9" class="st8" width="7.6" height="4.4"/>
					<rect x="370.8" y="156.9" class="st8" width="7.6" height="4.4"/>
					<rect x="380.8" y="156.9" class="st8" width="7.6" height="4.4"/>
					<rect x="390.9" y="156.9" class="st9" width="7.6" height="4.4"/>
				</g>
			</g>
			<rect x="346.7" y="120.2" class="st10" width="55.8" height="13.3"/>
			<rect x="346.7" y="120.2" class="st11" width="27.8" height="13.3"/>
			<g>
				<g>
					<path class="st8" d="M355.9,125c0,1.9-1.6,3.5-3.5,3.5s-3.5-1.6-3.5-3.5c0-1.9,1.6-3.5,3.5-3.5S355.9,123.1,355.9,125z"/>
					<path class="st6" d="M354,126.1c0,0.9-0.7,1.5-1.5,1.5l0,0c-0.9,0-1.5-0.7-1.5-1.5v-6.7c0-0.9,0.7-1.5,1.5-1.5l0,0
						c0.9,0,1.5,0.7,1.5,1.5V126.1z"/>
				</g>
				<g>
					<path class="st8" d="M364.8,125c0,1.9-1.6,3.5-3.5,3.5c-1.9,0-3.5-1.6-3.5-3.5c0-1.9,1.5-3.5,3.5-3.5
						C363.2,121.5,364.8,123.1,364.8,125z"/>
					<path class="st6" d="M362.9,126.1c0,0.9-0.7,1.5-1.5,1.5l0,0c-0.9,0-1.5-0.7-1.5-1.5v-6.7c0-0.9,0.7-1.5,1.5-1.5l0,0
						c0.9,0,1.5,0.7,1.5,1.5V126.1z"/>
				</g>
				<g>
					<path class="st8" d="M373.6,125c0,1.9-1.6,3.5-3.5,3.5c-1.9,0-3.5-1.6-3.5-3.5c0-1.9,1.6-3.5,3.5-3.5
						C372.1,121.5,373.6,123.1,373.6,125z"/>
					<path class="st6" d="M371.7,126.1c0,0.9-0.7,1.5-1.5,1.5l0,0c-0.9,0-1.5-0.7-1.5-1.5v-6.7c0-0.9,0.7-1.5,1.5-1.5l0,0
						c0.9,0,1.5,0.7,1.5,1.5V126.1z"/>
				</g>
				<g>
					<path class="st8" d="M382.5,125c0,1.9-1.6,3.5-3.5,3.5s-3.5-1.6-3.5-3.5c0-1.9,1.6-3.5,3.5-3.5S382.5,123.1,382.5,125z"/>
					<path class="st6" d="M380.6,126.1c0,0.9-0.7,1.5-1.5,1.5l0,0c-0.9,0-1.5-0.7-1.5-1.5v-6.7c0-0.9,0.7-1.5,1.5-1.5l0,0
						c0.9,0,1.5,0.7,1.5,1.5V126.1z"/>
				</g>
				<g>
					<path class="st8" d="M391.4,125c0,1.9-1.5,3.5-3.5,3.5c-1.9,0-3.5-1.6-3.5-3.5c0-1.9,1.6-3.5,3.5-3.5
						C389.8,121.5,391.4,123.1,391.4,125z"/>
					<path class="st6" d="M389.5,126.1c0,0.9-0.7,1.5-1.5,1.5l0,0c-0.9,0-1.5-0.7-1.5-1.5v-6.7c0-0.9,0.7-1.5,1.5-1.5l0,0
						c0.9,0,1.5,0.7,1.5,1.5V126.1z"/>
				</g>
				<g>
					<path class="st8" d="M400.3,125c0,1.9-1.6,3.5-3.5,3.5c-1.9,0-3.5-1.6-3.5-3.5c0-1.9,1.6-3.5,3.5-3.5
						C398.7,121.5,400.3,123.1,400.3,125z"/>
					<path class="st6" d="M398.3,126.1c0,0.9-0.7,1.5-1.5,1.5l0,0c-0.9,0-1.5-0.7-1.5-1.5v-6.7c0-0.9,0.7-1.5,1.5-1.5l0,0
						c0.9,0,1.5,0.7,1.5,1.5V126.1z"/>
				</g>
			</g>
		</g>
		<g>
			<rect x="296" y="66.5" class="st10" width="55.1" height="98.2"/>
			<rect x="312" y="69.3" class="st12" width="23.2" height="2.5"/>
			<polygon class="st11" points="296,66.5 296,164.7 323.6,164.7 323.6,161.9 323.6,158.4 323.6,155.6 323.6,73.6 323.6,71.8 
				323.6,69.3 323.6,66.5 			"/>
			<rect x="299" y="73.6" class="st6" width="49.2" height="81.9"/>
			<rect x="299" y="73.6" class="st7" width="25.1" height="81.9"/>
			<path class="st6" d="M329.3,160.2c0,1-0.8,1.8-1.8,1.8h-7.9c-1,0-1.8-0.8-1.8-1.8l0,0c0-1,0.8-1.8,1.8-1.8h7.9
				C328.5,158.4,329.3,159.2,329.3,160.2L329.3,160.2z"/>
			<path class="st7" d="M319.5,158.4c-0.9,0-1.6,0.8-1.6,1.8s0.7,1.8,1.6,1.8h4.1v-3.5H319.5z"/>
		</g>
		<g>
			<g>
				<path class="st13" d="M294.4,122.9l5.7-6.1c0,0-6.2-6.5-13,2.1C287.1,118.9,292,120.8,294.4,122.9z"/>
				<g>
					<polygon class="st13" points="259.8,164.7 251.4,164.7 251.4,148.7 264.7,148.7 					"/>
					<polygon class="st14" points="259.8,164.7 251.4,164.7 251.4,148.7 264.7,148.7 					"/>
					<polygon class="st13" points="293,164.7 284.7,164.7 284.7,148.7 298,148.7 					"/>
				</g>
				<path class="st13" d="M304.1,132.6h-3.4c-3.2-9.5-13.6-16.4-25.9-16.4c-14.9,0-27,10.2-27,22.8c0,12.6,12.1,22.8,27,22.8
					c12.3,0,22.7-6.9,25.9-16.4h3.4c2,0,3.7-1.5,3.7-3.4v-5.9C307.8,134.1,306.1,132.6,304.1,132.6z"/>
				<path class="st14" d="M274.4,116.2c-14.7,0.2-26.6,10.3-26.6,22.7c0,12.5,11.9,22.6,26.6,22.8V116.2z"/>
				<g>
					<path class="st8" d="M280.9,122.2c-0.1,0-0.3,0-0.4-0.1c-6.4-2.8-11.7-0.1-11.8,0c-0.5,0.3-1.2,0.1-1.5-0.4
						c-0.3-0.5-0.1-1.2,0.4-1.5c0.1,0,1.6-0.9,4.1-1.3c2.3-0.4,5.8-0.5,9.6,1.2c0.6,0.2,0.8,0.9,0.6,1.4
						C281.7,122,281.3,122.2,280.9,122.2z"/>
				</g>
				<path class="st15" d="M247.8,137.1c0,0-6.1,2-7.7-2.4c-1-2.6,2.2-3.5,3.8-1.8c1.1,1.3,1.1,4.1,0.4,4.8c-2.8,2.8-6.4,0.3-6.4,0.3
					"/>
				<g>
					<path class="st16" d="M287.2,131.7c1.9,1.9,5,1.9,7,0"/>
					<line class="st16" x1="290.7" y1="133.2" x2="290.7" y2="135.5"/>
					<line class="st16" x1="293" y1="132.6" x2="294.2" y2="134.5"/>
					<line class="st16" x1="288.5" y1="132.6" x2="287.2" y2="134.5"/>
				</g>
			</g>
			<g>
				<g>
					<path class="st17" d="M288.9,105.2c0,8.1-6.6,14.8-14.8,14.8c-8.1,0-14.7-6.6-14.7-14.8c0-8.1,6.6-14.7,14.7-14.7
						C282.3,90.5,288.9,97.1,288.9,105.2z"/>
					<path class="st18" d="M274.1,90.5c-8.1,0-14.7,6.6-14.7,14.7c0,8.1,6.6,14.7,14.7,14.7V90.5z"/>
					<path class="st6" d="M286.4,105.2c0,6.7-5.5,12.2-12.2,12.2c-6.7,0-12.2-5.5-12.2-12.2c0-6.7,5.5-12.2,12.2-12.2
						C280.9,93,286.4,98.5,286.4,105.2z"/>
					<path class="st19" d="M274.1,117.4V93c-6.7,0-12.2,5.5-12.2,12.2C262,111.9,267.4,117.4,274.1,117.4z"/>
					<g>
						<line class="st16" x1="274.2" y1="94.2" x2="274.2" y2="95.6"/>
						<line class="st16" x1="274.2" y1="114.8" x2="274.2" y2="116.3"/>
					</g>
					<g>
						<line class="st16" x1="285.2" y1="105.2" x2="283.8" y2="105.2"/>
						<line class="st16" x1="264.5" y1="105.2" x2="263.1" y2="105.2"/>
					</g>
					<g>
						<g>
							<line class="st16" x1="279.7" y1="95.6" x2="279" y2="96.9"/>
							<line class="st16" x1="269.4" y1="113.6" x2="268.6" y2="114.8"/>
						</g>
						<g>
							<line class="st16" x1="283.7" y1="110.7" x2="282.5" y2="110"/>
							<line class="st16" x1="265.8" y1="100.4" x2="264.6" y2="99.7"/>
						</g>
					</g>
					<g>
						<g>
							<line class="st16" x1="283.6" y1="99.4" x2="282.4" y2="100.2"/>
							<line class="st16" x1="266" y1="110.3" x2="264.8" y2="111"/>
						</g>
						<g>
							<line class="st16" x1="280" y1="114.6" x2="279.2" y2="113.4"/>
							<line class="st16" x1="269.1" y1="97" x2="268.4" y2="95.8"/>
						</g>
					</g>
					<g>
						<polygon class="st8" points="274.2,96.3 274.4,100.7 274.7,105.1 274.2,105.1 273.6,105.1 273.9,100.7 						"/>
						<polygon class="st8" points="283.7,105.2 278.6,105.5 273.6,105.8 273.6,105.2 273.6,104.7 278.6,104.9 						"/>
					</g>
				</g>
			</g>
		</g>
		<g>
			<g>
				<g>
					<line class="st20" x1="313.5" y1="82.2" x2="313.5" y2="62.4"/>
					<line class="st20" x1="323.9" y1="48.8" x2="323.9" y2="68.9"/>
					<line class="st20" x1="333" y1="64.4" x2="333" y2="85.7"/>
				</g>
				<g>
					<line class="st20" x1="313.5" y1="141.7" x2="313.5" y2="121.8"/>
					<line class="st20" x1="323.9" y1="108.3" x2="323.9" y2="128.3"/>
					<line class="st20" x1="333" y1="123.8" x2="333" y2="145.2"/>
				</g>
			</g>
			<g>
				<g>
					<path class="st20" d="M343.9,99.7c0,11.4-9.2,20.6-20.6,20.6c-11.4,0-20.6-9.2-20.6-20.6c0-11.4,9.2-20.6,20.6-20.6
						C334.7,79.1,343.9,88.3,343.9,99.7z"/>
					<path class="st20" d="M340.2,99.7c0,9.3-7.5,16.9-16.9,16.9c-9.3,0-16.9-7.5-16.9-16.9c0-9.3,7.5-16.9,16.9-16.9
						C332.6,82.8,340.2,90.4,340.2,99.7z"/>
					<path class="st9" d="M323.3,79.1c-11.3,0-20.5,9.2-20.5,20.6c0,11.3,9.2,20.5,20.5,20.6V79.1z"/>
					<g>
						<path class="st15" d="M343.9,99.7c0,11.4-9.2,20.6-20.6,20.6c-11.4,0-20.6-9.2-20.6-20.6c0-11.4,9.2-20.6,20.6-20.6
							C334.7,79.1,343.9,88.3,343.9,99.7z"/>
						<path class="st15" d="M340.2,99.7c0,9.3-7.5,16.9-16.9,16.9c-9.3,0-16.9-7.5-16.9-16.9c0-9.3,7.5-16.9,16.9-16.9
							C332.6,82.8,340.2,90.4,340.2,99.7z"/>
					</g>
					<g>
						<g>
							<g>
								<line class="st15" x1="322.6" y1="79.1" x2="322.6" y2="82.8"/>
								<line class="st15" x1="322.6" y1="116.5" x2="322.6" y2="120.3"/>
							</g>
						</g>
					</g>
					<g>
						<g>
							<g>
								<line class="st15" x1="322.6" y1="79.1" x2="322.6" y2="82.8"/>
								<line class="st15" x1="322.6" y1="116.5" x2="322.6" y2="120.3"/>
							</g>
						</g>
					</g>
					<g>
						<g>
							<g>
								<line class="st15" x1="344.4" y1="99.7" x2="340.7" y2="99.7"/>
								<line class="st15" x1="307" y1="99.7" x2="303.3" y2="99.7"/>
							</g>
						</g>
					</g>
					<g>
						<g>
							<g>
								<line class="st15" x1="344.4" y1="99.7" x2="340.7" y2="99.7"/>
								<line class="st15" x1="307" y1="99.7" x2="303.3" y2="99.7"/>
							</g>
						</g>
					</g>
					<g>
						<g>
							<g>
								<line class="st15" x1="338.4" y1="85.1" x2="335.8" y2="87.8"/>
								<line class="st15" x1="311.9" y1="111.6" x2="309.3" y2="114.2"/>
							</g>
						</g>
					</g>
					<g>
						<g>
							<g>
								<line class="st15" x1="338.4" y1="85.1" x2="335.8" y2="87.8"/>
								<line class="st15" x1="311.9" y1="111.6" x2="309.3" y2="114.2"/>
							</g>
						</g>
					</g>
					<g>
						<g>
							<g>
								<line class="st15" x1="338.4" y1="114.2" x2="335.8" y2="111.6"/>
								<line class="st15" x1="311.9" y1="87.8" x2="309.3" y2="85.1"/>
							</g>
						</g>
					</g>
					<g>
						<g>
							<g>
								<line class="st15" x1="338.4" y1="114.2" x2="335.8" y2="111.6"/>
								<line class="st15" x1="311.9" y1="87.8" x2="309.3" y2="85.1"/>
							</g>
						</g>
					</g>
					<g>
						<g>
							<g>
								<line class="st15" x1="334.2" y1="81.9" x2="332.3" y2="85.1"/>
								<line class="st15" x1="315.4" y1="114.3" x2="313.5" y2="117.5"/>
							</g>
						</g>
					</g>
					<g>
						<g>
							<g>
								<line class="st15" x1="334.2" y1="81.9" x2="332.3" y2="85.1"/>
								<line class="st15" x1="315.4" y1="114.3" x2="313.5" y2="117.5"/>
							</g>
						</g>
					</g>
					<g>
						<g>
							<g>
								<line class="st15" x1="341.7" y1="110" x2="338.4" y2="108.1"/>
								<line class="st15" x1="309.3" y1="91.2" x2="306.1" y2="89.3"/>
							</g>
						</g>
					</g>
					<g>
						<g>
							<g>
								<line class="st15" x1="341.7" y1="110" x2="338.4" y2="108.1"/>
								<line class="st15" x1="309.3" y1="91.2" x2="306.1" y2="89.3"/>
							</g>
						</g>
					</g>
					<g>
						<g>
							<g>
								<line class="st15" x1="343.2" y1="94.4" x2="339.6" y2="95.4"/>
								<line class="st15" x1="307" y1="104" x2="303.4" y2="105"/>
							</g>
						</g>
					</g>
					<g>
						<g>
							<g>
								<line class="st15" x1="343.2" y1="94.4" x2="339.6" y2="95.4"/>
								<line class="st15" x1="307" y1="104" x2="303.4" y2="105"/>
							</g>
						</g>
					</g>
					<g>
						<g>
							<g>
								<line class="st15" x1="327.9" y1="119.6" x2="326.9" y2="116"/>
								<line class="st15" x1="318.3" y1="83.4" x2="317.3" y2="79.8"/>
							</g>
						</g>
					</g>
					<g>
						<g>
							<g>
								<line class="st15" x1="327.9" y1="119.6" x2="326.9" y2="116"/>
								<line class="st15" x1="318.3" y1="83.4" x2="317.3" y2="79.8"/>
							</g>
						</g>
					</g>
					<g>
						<g>
							<g>
								<line class="st15" x1="329.6" y1="79.9" x2="328.5" y2="83.5"/>
								<line class="st15" x1="319.2" y1="115.9" x2="318.2" y2="119.4"/>
							</g>
						</g>
					</g>
					<g>
						<g>
							<g>
								<line class="st15" x1="329.6" y1="79.9" x2="328.5" y2="83.5"/>
								<line class="st15" x1="319.2" y1="115.9" x2="318.2" y2="119.4"/>
							</g>
						</g>
					</g>
					<g>
						<g>
							<g>
								<line class="st15" x1="343.6" y1="105.4" x2="340.1" y2="104.4"/>
								<line class="st15" x1="307.7" y1="95" x2="304.1" y2="94"/>
							</g>
						</g>
					</g>
					<g>
						<g>
							<g>
								<line class="st15" x1="343.6" y1="105.4" x2="340.1" y2="104.4"/>
								<line class="st15" x1="307.7" y1="95" x2="304.1" y2="94"/>
							</g>
						</g>
					</g>
					<g>
						<g>
							<g>
								<line class="st15" x1="341.3" y1="89.7" x2="338.1" y2="91.5"/>
								<line class="st15" x1="308.6" y1="107.8" x2="305.3" y2="109.6"/>
							</g>
						</g>
					</g>
					<g>
						<g>
							<g>
								<line class="st15" x1="341.3" y1="89.7" x2="338.1" y2="91.5"/>
								<line class="st15" x1="308.6" y1="107.8" x2="305.3" y2="109.6"/>
							</g>
						</g>
					</g>
					<g>
						<g>
							<g>
								<line class="st15" x1="333.8" y1="117.7" x2="332" y2="114.4"/>
								<line class="st15" x1="315.7" y1="84.9" x2="313.9" y2="81.7"/>
							</g>
						</g>
					</g>
					<g>
						<g>
							<g>
								<line class="st15" x1="333.8" y1="117.7" x2="332" y2="114.4"/>
								<line class="st15" x1="315.7" y1="84.9" x2="313.9" y2="81.7"/>
							</g>
						</g>
					</g>
					<g>
						<path class="st21" d="M308.8,100.4c0-8,6.5-14.6,14.6-14.6"/>
						<path class="st21" d="M325.5,85.9c0,0,2.7,0.1,5.3,1.9"/>
					</g>
				</g>
				<path class="st8" d="M330.4,101.4c-0.6-0.7-1.5-1.2-2.7-1.5c0.8-0.3,1.4-0.7,1.8-1.1c0.6-0.7,0.9-1.6,0.9-2.6
					c0-1.2-0.4-2.2-1.3-3c-0.7-0.6-1.6-1-2.7-1.2v-1.6h-1.9v1.5h-1.9v-1.5h-1.9v1.5h-5.3V109h5.3v1.5h1.9V109h1.9v1.5h1.9v-1.7
					c0.2,0,0.3,0,0.5-0.1c0.9-0.1,1.6-0.3,2-0.6c0.7-0.4,1.3-1,1.7-1.7c0.4-0.7,0.6-1.5,0.6-2.4C331.2,103,330.9,102.1,330.4,101.4z
					 M320.7,95.3h2.3c0.8,0,1.4,0.1,1.7,0.4c0.3,0.3,0.5,0.7,0.5,1.2c0,0.5-0.2,0.9-0.5,1.2c-0.3,0.3-0.9,0.4-1.7,0.4h-2.3V95.3z
					 M320.7,105.3v-3.5h2.7c0.9,0,1.6,0.2,1.9,0.5c0.4,0.3,0.6,0.7,0.6,1.2c0,0.5-0.2,1-0.6,1.3c-0.4,0.3-1,0.5-1.9,0.5H320.7z"/>
			</g>
		</g>
	</g>
	<line class="st22" x1="221.1" y1="164.7" x2="419.3" y2="164.7"/>
</g>
<g class="st0">
	<g class="st5">
		<path class="st23" d="M117.1,306c0.6-0.1,1.3-0.2,1.8-0.4l1.1,2.5l2.1-0.9l-1.1-2.5c0.6-0.3,1.2-0.7,1.7-1.2l2,1.9l1.6-1.6l-2-1.9
			c0.4-0.5,0.7-1,1-1.6l2.5,1l0.8-2.1l-2.5-1c0.2-0.7,0.3-1.3,0.4-2l2.7-0.1l0-2.2l-2.7,0.1c-0.1-0.6-0.2-1.3-0.4-1.8l2.5-1.1
			l-0.9-2.1l-2.5,1.1c-0.3-0.6-0.7-1.2-1.2-1.7l1.9-2l-1.6-1.6l-1.9,2c-0.5-0.4-1-0.7-1.6-1l1-2.5l-2.1-0.8l-1,2.5
			c-0.7-0.2-1.3-0.3-2-0.4l-0.1-2.7l-2.2,0l0.1,2.7c-0.6,0.1-1.3,0.2-1.8,0.4l-1.1-2.5l-2.1,0.9l1.1,2.5c-0.6,0.3-1.2,0.7-1.7,1.2
			l-2-1.9l-1.6,1.6l2,1.9c-0.4,0.5-0.7,1-1,1.6l-2.5-1l-0.8,2.1l2.5,1c-0.2,0.7-0.3,1.3-0.4,2l-2.7,0.1l0,2.2l2.7-0.1
			c0.1,0.6,0.2,1.3,0.4,1.8l-2.5,1.1l0.9,2.1l2.5-1.1c0.3,0.6,0.7,1.2,1.2,1.7l-1.9,2l1.6,1.5l1.9-2c0.5,0.4,1,0.7,1.6,1l-1,2.5
			l2.1,0.8l1-2.5c0.7,0.2,1.3,0.3,2,0.4l0.1,2.7l2.2,0L117.1,306z M115.9,302.3c-3.9,0.1-7.1-3-7.2-6.9c-0.1-3.9,3-7.1,6.9-7.2
			c3.9-0.1,7.1,3,7.2,6.9C122.9,299,119.8,302.2,115.9,302.3z"/>
		<g>
			<path class="st23" d="M147.6,330.4c0.4-0.1,0.9-0.2,1.3-0.3l0.8,1.9l4.1-1.8l-0.8-1.9c0.4-0.2,0.7-0.5,1.1-0.8l1.5,1.5l3.1-3.2
				l-1.5-1.5c0.3-0.4,0.5-0.7,0.7-1.1l2,0.8l1.6-4.1l-2-0.8c0.1-0.4,0.2-0.9,0.2-1.3l2.1,0l-0.1-4.4l-2.1,0
				c-0.1-0.4-0.2-0.9-0.3-1.3l1.9-0.8l-1.8-4.1l-1.9,0.8c-0.2-0.4-0.5-0.7-0.8-1.1l1.5-1.5l-3.2-3.1l-1.5,1.5
				c-0.4-0.2-0.7-0.5-1.1-0.7l0.8-2l-4.1-1.6l-0.8,2c-0.4-0.1-0.9-0.2-1.3-0.2l0-2.1l-4.4,0.1l0,2.1c-0.4,0.1-0.9,0.2-1.3,0.3
				l-0.8-1.9l-4.1,1.8l0.8,1.9c-0.4,0.2-0.7,0.5-1.1,0.8l-1.5-1.5l-3.1,3.2l1.5,1.5c-0.2,0.4-0.5,0.7-0.7,1.1l-2-0.8l-1.6,4.1l2,0.8
				c-0.1,0.4-0.2,0.9-0.2,1.3l-2.1,0l0.1,4.4l2.1,0c0.1,0.4,0.2,0.9,0.3,1.3l-1.9,0.8l1.8,4.1l1.9-0.8c0.2,0.4,0.5,0.7,0.8,1.1
				l-1.5,1.5l3.2,3.1l1.5-1.5c0.4,0.2,0.7,0.5,1.1,0.7l-0.8,2l4.1,1.6l0.8-2c0.4,0.1,0.9,0.2,1.3,0.2l0,2.1l4.4-0.1L147.6,330.4z
				 M145.3,326.9c-6,0.1-11-4.7-11.1-10.7c-0.1-6,4.7-11,10.7-11.1c6-0.1,11,4.7,11.1,10.7C156.1,321.7,151.4,326.7,145.3,326.9z"/>
		</g>
		<g>
			<path class="st23" d="M149.2,292.2c0.8-0.4,1.5-1,2.2-1.5l2.4,1.5l3.6-5.6l-2.4-1.5c0.3-0.9,0.4-1.8,0.5-2.7l2.8-0.6l-1.4-6.5
				l-2.8,0.6c-0.4-0.8-0.9-1.6-1.5-2.2l1.5-2.4l-5.6-3.6l-1.5,2.4c-0.9-0.3-1.8-0.4-2.7-0.5l-0.6-2.8l-6.5,1.4l0.6,2.7
				c-0.8,0.4-1.6,1-2.2,1.5l-2.4-1.5l-3.6,5.6l2.4,1.5c-0.3,0.9-0.4,1.8-0.5,2.7l-2.8,0.6l1.4,6.5l2.8-0.6c0.4,0.8,1,1.6,1.5,2.2
				l-1.5,2.4l5.6,3.6l1.5-2.4c0.9,0.3,1.8,0.4,2.7,0.5l0.6,2.8l6.5-1.4L149.2,292.2z M152.9,279.5c1.1,5.2-2.2,10.4-7.4,11.5
				c-5.2,1.1-10.4-2.2-11.5-7.4c-1.1-5.2,2.2-10.4,7.4-11.5C146.6,271,151.8,274.3,152.9,279.5z"/>
		</g>
	</g>
	<g class="st5">
		<path class="st23" d="M64.7,308.6l1.7,0l0-2.1c0.5,0,1.1-0.1,1.6-0.3l0.8,1.9l1.6-0.6l-0.8-1.9c0.4-0.2,0.8-0.5,1.2-0.8l1.5,1.5
			l1.3-1.2l-1.5-1.5c0.3-0.4,0.7-0.8,0.9-1.3l1.9,0.8l0.7-1.6l-1.9-0.8c0.1-0.5,0.3-0.9,0.3-1.4l2.1,0l0-1.7l-2.1,0
			c0-0.5-0.1-1.1-0.3-1.6l1.9-0.8l-0.6-1.6l-1.9,0.8c-0.2-0.4-0.5-0.8-0.8-1.2l1.5-1.5l-1.2-1.3l-1.5,1.5c-0.4-0.3-0.8-0.7-1.3-0.9
			l0.8-1.9l-1.6-0.7l-0.8,1.9c-0.5-0.1-0.9-0.2-1.4-0.3l0-2.1l-1.7,0l0,2.1c-0.5,0-1.1,0.1-1.6,0.3l-0.8-1.9l-1.6,0.6l0.8,2
			c-0.4,0.2-0.8,0.5-1.2,0.8l-1.5-1.5l-1.3,1.2l1.5,1.5c-0.3,0.4-0.7,0.8-0.9,1.3l-1.9-0.8l-0.7,1.6l1.9,0.8
			c-0.1,0.5-0.3,0.9-0.3,1.4l-2.1,0l0,1.7l2.1,0c0,0.5,0.1,1.1,0.3,1.6l-1.9,0.8l0.6,1.6l1.9-0.8c0.2,0.4,0.5,0.8,0.8,1.2l-1.5,1.5
			l1.2,1.3l1.5-1.5c0.4,0.3,0.8,0.7,1.3,0.9l-0.8,1.9l1.6,0.7l0.8-1.9c0.5,0.1,0.9,0.3,1.4,0.3L64.7,308.6z M60.3,298.1
			c0.1-3,2.6-5.4,5.6-5.3c3,0.1,5.4,2.6,5.3,5.6c-0.1,3-2.6,5.4-5.6,5.3C62.6,303.7,60.2,301.2,60.3,298.1z"/>
		<g>
			<path class="st23" d="M41,327.2l3.4,0.1l0-1.6c0.3,0,0.7-0.1,1-0.2L46,327l3.2-1.3l-0.6-1.5c0.3-0.2,0.6-0.4,0.8-0.5l1.1,1.2
				l2.5-2.4l-1.1-1.2c0.2-0.3,0.4-0.5,0.6-0.8l1.5,0.7l1.4-3.2l-1.5-0.7c0.1-0.3,0.2-0.7,0.2-1l1.6,0l0.1-3.4l-1.6,0
				c0-0.3-0.1-0.7-0.2-1l1.5-0.6l-1.3-3.2l-1.5,0.6c-0.2-0.3-0.4-0.6-0.5-0.8l1.2-1.1l-2.4-2.5l-1.2,1.1c-0.3-0.2-0.5-0.4-0.8-0.6
				l0.7-1.5l-3.2-1.4l-0.7,1.5c-0.3-0.1-0.7-0.2-1-0.2l0-1.6l-3.4-0.1l0,1.6c-0.3,0-0.7,0.1-1,0.2l-0.6-1.5l-3.2,1.3l0.6,1.5
				c-0.3,0.2-0.6,0.4-0.8,0.5l-1.1-1.2l-2.5,2.4l1.1,1.2c-0.2,0.3-0.4,0.5-0.6,0.8l-1.5-0.7l-1.4,3.2l1.5,0.7
				c-0.1,0.3-0.2,0.7-0.2,1l-1.6,0l-0.1,3.4l1.6,0c0,0.3,0.1,0.7,0.2,1l-1.5,0.6l1.3,3.2l1.5-0.6c0.2,0.3,0.3,0.6,0.5,0.8l-1.2,1.1
				l2.4,2.5l1.2-1.1c0.3,0.2,0.5,0.4,0.8,0.6l-0.7,1.5l3.2,1.4l0.7-1.5c0.3,0.1,0.7,0.2,1,0.2L41,327.2z M34.5,314.1
				c0.1-4.7,4-8.4,8.6-8.3c4.7,0.1,8.4,4,8.3,8.6c-0.1,4.7-4,8.4-8.6,8.3C38.1,322.7,34.4,318.8,34.5,314.1z"/>
		</g>
		<g>
			<path class="st23" d="M39.4,298l5.1,1.1l0.5-2.1c0.7,0,1.4-0.2,2.1-0.4l1.2,1.8l4.4-2.8l-1.2-1.8c0.5-0.5,0.9-1.1,1.2-1.7
				l2.1,0.5l1.1-5.1l-2.1-0.5c0-0.7-0.2-1.4-0.4-2.1l1.8-1.2l-2.8-4.4l-1.8,1.2c-0.5-0.5-1.1-0.9-1.7-1.2l0.5-2.1l-5.1-1.1l-0.5,2.1
				c-0.7,0-1.4,0.2-2.1,0.4l-1.2-1.8l-4.4,2.8l1.2,1.8c-0.5,0.5-0.9,1.1-1.2,1.7l-2.1-0.5l-1.1,5.1l2.1,0.5c0,0.7,0.2,1.4,0.4,2.1
				l-1.8,1.2l2.8,4.4l1.8-1.2c0.5,0.5,1.1,0.9,1.7,1.2L39.4,298z M45.8,280.3c4,0.9,6.6,4.9,5.8,8.9c-0.9,4-4.9,6.6-8.9,5.8
				c-4-0.9-6.6-4.9-5.8-8.9C37.8,282,41.8,279.4,45.8,280.3z"/>
		</g>
	</g>
	<g class="st5">
		<g>
			<g>
				<g>
					<polygon class="st9" points="132,334.8 126.5,340.1 126.5,370.6 132,370.6 					"/>
					<polygon class="st11" points="137.6,331.4 135.8,331.4 132,334.8 132,370.6 137.6,370.6 					"/>
					<rect x="137.6" y="331.4" class="st9" width="5.6" height="39.3"/>
					<rect x="143.1" y="331.4" class="st11" width="5.6" height="39.3"/>
					<polygon class="st9" points="154.2,327 149.6,331.4 148.7,331.4 148.7,370.6 154.2,370.6 					"/>
					<polygon class="st11" points="159.8,322.6 158.9,322.6 154.2,327 154.2,370.6 159.8,370.6 					"/>
					<rect x="159.8" y="322.6" class="st9" width="5.6" height="48"/>
					<rect x="165.3" y="322.6" class="st11" width="5.6" height="48"/>
					<polygon class="st9" points="176.4,319.1 172.7,322.6 170.9,322.6 170.9,370.6 176.4,370.6 					"/>
					<polygon class="st11" points="182,313.9 176.4,319.1 176.4,370.6 182,370.6 					"/>
				</g>
				<polyline class="st15" points="184.9,311.2 172.7,322.6 158.9,322.6 149.6,331.4 135.8,331.4 124.6,341.9 				"/>
				<polygon class="st8" points="178.6,312.3 186.4,309.7 183.3,316.8 183.3,312.7 				"/>
			</g>
			<g>
				<rect x="118" y="343.2" class="st6" width="34.4" height="27.4"/>
				<rect x="118" y="343.2" class="st7" width="17.2" height="27.4"/>
				<g>
					<g>
						<rect x="120.5" y="353.5" class="st8" width="4.7" height="2.7"/>
						<rect x="126.7" y="353.5" class="st8" width="4.7" height="2.7"/>
						<rect x="132.9" y="353.5" class="st8" width="4.7" height="2.7"/>
						<rect x="139" y="353.5" class="st8" width="4.7" height="2.7"/>
						<rect x="145.2" y="353.5" class="st9" width="4.7" height="2.7"/>
					</g>
					<g>
						<rect x="120.5" y="357.6" class="st8" width="4.7" height="2.7"/>
						<rect x="126.7" y="357.6" class="st8" width="4.7" height="2.7"/>
						<rect x="132.9" y="357.6" class="st8" width="4.7" height="2.7"/>
						<rect x="139" y="357.6" class="st8" width="4.7" height="2.7"/>
						<rect x="145.2" y="357.6" class="st9" width="4.7" height="2.7"/>
					</g>
					<g>
						<rect x="120.5" y="361.7" class="st8" width="4.7" height="2.7"/>
						<rect x="126.7" y="361.7" class="st8" width="4.7" height="2.7"/>
						<rect x="132.9" y="361.7" class="st8" width="4.7" height="2.7"/>
						<rect x="139" y="361.7" class="st8" width="4.7" height="2.7"/>
						<rect x="145.2" y="361.7" class="st9" width="4.7" height="2.7"/>
					</g>
					<g>
						<rect x="120.5" y="365.8" class="st8" width="4.7" height="2.7"/>
						<rect x="126.7" y="365.8" class="st8" width="4.7" height="2.7"/>
						<rect x="132.9" y="365.8" class="st8" width="4.7" height="2.7"/>
						<rect x="139" y="365.8" class="st8" width="4.7" height="2.7"/>
						<rect x="145.2" y="365.8" class="st9" width="4.7" height="2.7"/>
					</g>
				</g>
				<rect x="118" y="343.2" class="st10" width="34.4" height="8.2"/>
				<rect x="118" y="343.2" class="st11" width="17.1" height="8.2"/>
				<g>
					<g>
						<path class="st8" d="M123.7,346.2c0,1.2-1,2.1-2.1,2.1c-1.2,0-2.1-1-2.1-2.1c0-1.2,1-2.1,2.1-2.1
							C122.7,344,123.7,345,123.7,346.2z"/>
						<path class="st6" d="M122.5,346.8c0,0.5-0.4,1-1,1l0,0c-0.5,0-1-0.4-1-1v-4.1c0-0.5,0.4-1,1-1l0,0c0.5,0,1,0.4,1,1V346.8z"/>
					</g>
					<g>
						<path class="st8" d="M129.1,346.2c0,1.2-1,2.1-2.1,2.1c-1.2,0-2.1-1-2.1-2.1c0-1.2,1-2.1,2.1-2.1
							C128.2,344,129.1,345,129.1,346.2z"/>
						<path class="st6" d="M128,346.8c0,0.5-0.4,1-1,1l0,0c-0.5,0-1-0.4-1-1v-4.1c0-0.5,0.4-1,1-1l0,0c0.5,0,1,0.4,1,1V346.8z"/>
					</g>
					<g>
						<path class="st8" d="M134.6,346.2c0,1.2-1,2.1-2.1,2.1c-1.2,0-2.1-1-2.1-2.1c0-1.2,1-2.1,2.1-2.1
							C133.6,344,134.6,345,134.6,346.2z"/>
						<path class="st6" d="M133.4,346.8c0,0.5-0.4,1-0.9,1l0,0c-0.5,0-1-0.4-1-1v-4.1c0-0.5,0.4-1,1-1l0,0c0.5,0,0.9,0.4,0.9,1
							V346.8z"/>
					</g>
					<g>
						<path class="st8" d="M140.1,346.2c0,1.2-1,2.1-2.1,2.1c-1.2,0-2.1-1-2.1-2.1c0-1.2,1-2.1,2.1-2.1
							C139.1,344,140.1,345,140.1,346.2z"/>
						<path class="st6" d="M138.9,346.8c0,0.5-0.4,1-1,1l0,0c-0.5,0-1-0.4-1-1v-4.1c0-0.5,0.4-1,1-1l0,0c0.5,0,1,0.4,1,1V346.8z"/>
					</g>
					<g>
						<path class="st8" d="M145.5,346.2c0,1.2-1,2.1-2.1,2.1c-1.2,0-2.1-1-2.1-2.1c0-1.2,1-2.1,2.1-2.1
							C144.6,344,145.5,345,145.5,346.2z"/>
						<path class="st6" d="M144.3,346.8c0,0.5-0.4,1-1,1l0,0c-0.5,0-1-0.4-1-1v-4.1c0-0.5,0.4-1,1-1l0,0c0.5,0,1,0.4,1,1V346.8z"/>
					</g>
					<g>
						<path class="st8" d="M151,346.2c0,1.2-1,2.1-2.1,2.1s-2.1-1-2.1-2.1c0-1.2,1-2.1,2.1-2.1S151,345,151,346.2z"/>
						<path class="st6" d="M149.8,346.8c0,0.5-0.4,1-1,1l0,0c-0.5,0-0.9-0.4-0.9-1v-4.1c0-0.5,0.4-1,0.9-1l0,0c0.5,0,1,0.4,1,1
							V346.8z"/>
					</g>
				</g>
			</g>
		</g>
		<g>
			<g>
				<polygon class="st24" points="120.2,370.6 113.9,364.8 107.6,358.9 109.8,357.2 111.9,355.5 116.1,363.1 				"/>
				<polygon class="st24" points="62.2,370.6 68.5,364.8 74.7,358.9 72.6,357.2 70.4,355.5 66.3,363.1 				"/>
			</g>
			<g>
				<g>
					<line class="st16" x1="59.4" y1="298.5" x2="67.4" y2="307.7"/>
					<path class="st24" d="M75,293.5c-5.7-4.1-13.7-3.9-19.3,1c-5.5,4.8-6.8,12.8-3.5,19L75,293.5z"/>
					<path class="st9" d="M55.8,294.4c-5.5,4.8-6.8,12.8-3.5,19l12.1-10.6L55.8,294.4z"/>
				</g>
				<g>
					<line class="st16" x1="121.2" y1="298.5" x2="113.2" y2="307.7"/>
					<path class="st24" d="M105.6,293.5c5.7-4.1,13.7-3.9,19.3,1c5.5,4.8,6.8,12.8,3.5,19L105.6,293.5z"/>
				</g>
			</g>
			<path class="st17" d="M124.6,330.7c0,18.9-15.3,34.3-34.3,34.3C71.4,365,56,349.6,56,330.7s15.3-34.3,34.3-34.3
				C109.2,296.4,124.6,311.8,124.6,330.7z"/>
			<path class="st18" d="M90.2,296.4C71.3,296.5,56,311.8,56,330.7c0,18.9,15.3,34.2,34.2,34.3V296.4z"/>
			<path class="st6" d="M118.7,330.7c0,15.7-12.7,28.3-28.3,28.3C74.7,359,62,346.4,62,330.7c0-15.7,12.7-28.3,28.3-28.3
				C106,302.4,118.7,315,118.7,330.7z"/>
			<path class="st19" d="M90.2,359v-56.7C74.6,302.4,62,315.1,62,330.7C62,346.3,74.6,359,90.2,359z"/>
			<g>
				<line class="st16" x1="90.3" y1="305" x2="90.3" y2="308.3"/>
				<line class="st16" x1="90.3" y1="353.1" x2="90.3" y2="356.4"/>
			</g>
			<g>
				<line class="st16" x1="116" y1="330.7" x2="112.7" y2="330.7"/>
				<line class="st16" x1="67.9" y1="330.7" x2="64.6" y2="330.7"/>
			</g>
			<g>
				<g>
					<line class="st16" x1="103.1" y1="308.5" x2="101.5" y2="311.3"/>
					<line class="st16" x1="79.1" y1="350.1" x2="77.5" y2="352.9"/>
				</g>
				<g>
					<line class="st16" x1="112.5" y1="343.5" x2="109.7" y2="341.9"/>
					<line class="st16" x1="70.9" y1="319.5" x2="68.1" y2="317.9"/>
				</g>
			</g>
			<g>
				<g>
					<line class="st16" x1="112.2" y1="317.2" x2="109.3" y2="319"/>
					<line class="st16" x1="71.3" y1="342.4" x2="68.5" y2="344.2"/>
				</g>
				<g>
					<line class="st16" x1="103.8" y1="352.6" x2="102" y2="349.7"/>
					<line class="st16" x1="78.6" y1="311.7" x2="76.8" y2="308.8"/>
				</g>
			</g>
			<g>
				<polygon class="st8" points="90.3,309.9 90.9,320.2 91.6,330.4 90.3,330.4 89,330.4 89.7,320.2 				"/>
				<polygon class="st8" points="112.4,330.7 100.7,331.3 89,332 89,330.7 89,329.4 100.7,330.1 				"/>
			</g>
			<path class="st9" d="M124.9,294.4c-5.5-4.9-13.5-5.1-19.3-1l12,10.6L124.9,294.4z"/>
		</g>
		<g>
			<g>
				<g>
					<path class="st20" d="M53.9,334c0,7.1-5.8,12.8-12.8,12.8c-7.1,0-12.8-5.8-12.8-12.8c0-7.1,5.8-12.8,12.8-12.8
						C48.2,321.2,53.9,326.9,53.9,334z"/>
					<path class="st20" d="M51.6,334c0,5.8-4.7,10.5-10.5,10.5c-5.8,0-10.5-4.7-10.5-10.5c0-5.8,4.7-10.5,10.5-10.5
						C46.9,323.5,51.6,328.2,51.6,334z"/>
					<path class="st9" d="M41,321.2c-7.1,0-12.8,5.8-12.8,12.8c0,7.1,5.7,12.8,12.8,12.8V321.2z"/>
					<g>
						<path class="st15" d="M53.9,334c0,7.1-5.8,12.8-12.8,12.8c-7.1,0-12.8-5.8-12.8-12.8c0-7.1,5.8-12.8,12.8-12.8
							C48.2,321.2,53.9,326.9,53.9,334z"/>
						<path class="st15" d="M51.6,334c0,5.8-4.7,10.5-10.5,10.5c-5.8,0-10.5-4.7-10.5-10.5c0-5.8,4.7-10.5,10.5-10.5
							C46.9,323.5,51.6,328.2,51.6,334z"/>
					</g>
					<g>
						<g>
							<g>
								<line class="st15" x1="40.6" y1="321.2" x2="40.6" y2="323.5"/>
								<line class="st15" x1="40.6" y1="344.5" x2="40.6" y2="346.9"/>
							</g>
						</g>
					</g>
					<g>
						<g>
							<g>
								<line class="st15" x1="40.6" y1="321.2" x2="40.6" y2="323.5"/>
								<line class="st15" x1="40.6" y1="344.5" x2="40.6" y2="346.9"/>
							</g>
						</g>
					</g>
					<g>
						<g>
							<g>
								<line class="st15" x1="54.3" y1="334" x2="51.9" y2="334"/>
								<line class="st15" x1="30.9" y1="334" x2="28.6" y2="334"/>
							</g>
						</g>
					</g>
					<g>
						<g>
							<g>
								<line class="st15" x1="54.3" y1="334" x2="51.9" y2="334"/>
								<line class="st15" x1="30.9" y1="334" x2="28.6" y2="334"/>
							</g>
						</g>
					</g>
					<g>
						<g>
							<g>
								<line class="st15" x1="50.5" y1="324.9" x2="48.9" y2="326.6"/>
								<line class="st15" x1="34" y1="341.5" x2="32.3" y2="343.1"/>
							</g>
						</g>
					</g>
					<g>
						<g>
							<g>
								<line class="st15" x1="50.5" y1="324.9" x2="48.9" y2="326.6"/>
								<line class="st15" x1="34" y1="341.5" x2="32.3" y2="343.1"/>
							</g>
						</g>
					</g>
					<g>
						<g>
							<g>
								<line class="st15" x1="50.5" y1="343.1" x2="48.9" y2="341.5"/>
								<line class="st15" x1="34" y1="326.6" x2="32.3" y2="324.9"/>
							</g>
						</g>
					</g>
					<g>
						<g>
							<g>
								<line class="st15" x1="50.5" y1="343.1" x2="48.9" y2="341.5"/>
								<line class="st15" x1="34" y1="326.6" x2="32.3" y2="324.9"/>
							</g>
						</g>
					</g>
					<g>
						<g>
							<g>
								<line class="st15" x1="47.9" y1="322.9" x2="46.7" y2="324.9"/>
								<line class="st15" x1="36.1" y1="343.1" x2="35" y2="345.1"/>
							</g>
						</g>
					</g>
					<g>
						<g>
							<g>
								<line class="st15" x1="47.9" y1="322.9" x2="46.7" y2="324.9"/>
								<line class="st15" x1="36.1" y1="343.1" x2="35" y2="345.1"/>
							</g>
						</g>
					</g>
					<g>
						<g>
							<g>
								<line class="st15" x1="52.5" y1="340.5" x2="50.5" y2="339.3"/>
								<line class="st15" x1="32.3" y1="328.7" x2="30.3" y2="327.6"/>
							</g>
						</g>
					</g>
					<g>
						<g>
							<g>
								<line class="st15" x1="52.5" y1="340.5" x2="50.5" y2="339.3"/>
								<line class="st15" x1="32.3" y1="328.7" x2="30.3" y2="327.6"/>
							</g>
						</g>
					</g>
					<g>
						<g>
							<g>
								<line class="st15" x1="53.5" y1="330.7" x2="51.2" y2="331.3"/>
								<line class="st15" x1="30.9" y1="336.7" x2="28.7" y2="337.3"/>
							</g>
						</g>
					</g>
					<g>
						<g>
							<g>
								<line class="st15" x1="53.5" y1="330.7" x2="51.2" y2="331.3"/>
								<line class="st15" x1="30.9" y1="336.7" x2="28.7" y2="337.3"/>
							</g>
						</g>
					</g>
					<g>
						<g>
							<g>
								<line class="st15" x1="43.9" y1="346.4" x2="43.3" y2="344.2"/>
								<line class="st15" x1="37.9" y1="323.9" x2="37.3" y2="321.6"/>
							</g>
						</g>
					</g>
					<g>
						<g>
							<g>
								<line class="st15" x1="43.9" y1="346.4" x2="43.3" y2="344.2"/>
								<line class="st15" x1="37.9" y1="323.9" x2="37.3" y2="321.6"/>
							</g>
						</g>
					</g>
					<g>
						<g>
							<g>
								<line class="st15" x1="45" y1="321.7" x2="44.3" y2="323.9"/>
								<line class="st15" x1="38.5" y1="344.1" x2="37.9" y2="346.4"/>
							</g>
						</g>
					</g>
					<g>
						<g>
							<g>
								<line class="st15" x1="45" y1="321.7" x2="44.3" y2="323.9"/>
								<line class="st15" x1="38.5" y1="344.1" x2="37.9" y2="346.4"/>
							</g>
						</g>
					</g>
					<g>
						<g>
							<g>
								<line class="st15" x1="53.8" y1="337.6" x2="51.5" y2="336.9"/>
								<line class="st15" x1="31.3" y1="331.1" x2="29.1" y2="330.5"/>
							</g>
						</g>
					</g>
					<g>
						<g>
							<g>
								<line class="st15" x1="53.8" y1="337.6" x2="51.5" y2="336.9"/>
								<line class="st15" x1="31.3" y1="331.1" x2="29.1" y2="330.5"/>
							</g>
						</g>
					</g>
					<g>
						<g>
							<g>
								<line class="st15" x1="52.3" y1="327.8" x2="50.3" y2="328.9"/>
								<line class="st15" x1="31.9" y1="339.1" x2="29.8" y2="340.2"/>
							</g>
						</g>
					</g>
					<g>
						<g>
							<g>
								<line class="st15" x1="52.3" y1="327.8" x2="50.3" y2="328.9"/>
								<line class="st15" x1="31.9" y1="339.1" x2="29.8" y2="340.2"/>
							</g>
						</g>
					</g>
					<g>
						<g>
							<g>
								<line class="st15" x1="47.6" y1="345.3" x2="46.5" y2="343.2"/>
								<line class="st15" x1="36.3" y1="324.8" x2="35.2" y2="322.8"/>
							</g>
						</g>
					</g>
					<g>
						<g>
							<g>
								<line class="st15" x1="47.6" y1="345.3" x2="46.5" y2="343.2"/>
								<line class="st15" x1="36.3" y1="324.8" x2="35.2" y2="322.8"/>
							</g>
						</g>
					</g>
					<g>
						<path class="st21" d="M32,334.5c0-5,4.1-9.1,9.1-9.1"/>
						<path class="st21" d="M42.4,325.4c0,0,1.7,0.1,3.3,1.2"/>
					</g>
				</g>
				<path class="st8" d="M45.5,335.1c-0.4-0.4-0.9-0.8-1.7-1c0.5-0.2,0.9-0.4,1.2-0.7c0.4-0.5,0.6-1,0.6-1.6c0-0.8-0.3-1.4-0.8-1.9
					c-0.4-0.4-1-0.6-1.7-0.7v-1h-1.2v0.9h-1.2v-0.9h-1.2v0.9h-3.3v10.7h3.3v0.9h1.2v-0.9h1.2v0.9H43v-1c0.1,0,0.2,0,0.3,0
					c0.6-0.1,1-0.2,1.3-0.3c0.4-0.3,0.8-0.6,1.1-1c0.3-0.4,0.4-0.9,0.4-1.5C46,336.1,45.8,335.5,45.5,335.1z M39.5,331.3h1.5
					c0.5,0,0.9,0.1,1.1,0.3c0.2,0.2,0.3,0.4,0.3,0.7c0,0.3-0.1,0.6-0.3,0.8c-0.2,0.2-0.6,0.3-1.1,0.3h-1.4V331.3z M39.5,337.5v-2.2
					h1.7c0.6,0,1,0.1,1.2,0.3c0.2,0.2,0.3,0.4,0.3,0.8c0,0.3-0.1,0.6-0.4,0.8c-0.2,0.2-0.6,0.3-1.2,0.3H39.5z"/>
			</g>
			<g>
				<path class="st20" d="M61.5,353.2H46.6c-1.6,0-2.8,1.3-2.8,2.8v11.8c0,1.6,1.3,2.8,2.8,2.8h14.9c1.6,0,2.8-1.3,2.8-2.8V356
					C64.4,354.5,63.1,353.2,61.5,353.2z"/>
				<g>
					<path class="st25" d="M62,353.2h-2.8v-4.5c0-2.8-2.3-5.1-5.1-5.1c-2.8,0-5.1,2.3-5.1,5.1v4.5h-2.8v-4.5c0-4.3,3.5-7.9,7.9-7.9
						c4.3,0,7.9,3.5,7.9,7.9V353.2z"/>
				</g>
				<g>
					<path class="st18" d="M54,340.8c-4.3,0-7.8,3.6-7.8,7.9v4.5H49v-4.5c0-2.8,2.2-5.1,5-5.1V340.8z"/>
				</g>
				<path class="st9" d="M46.6,353.2c-1.6,0-2.8,1.3-2.8,2.8v11.8c0,1.6,1.3,2.8,2.8,2.8h7.5v-17.4H46.6z"/>
				<path class="st8" d="M56.7,359.9c0-1.5-1.2-2.6-2.6-2.6c-1.5,0-2.6,1.2-2.6,2.6c0,1.1,0.7,2.1,1.7,2.5l-0.4,4.2h2.6l-0.4-4.2
					C56,362,56.7,361,56.7,359.9z"/>
				<g>
					<path class="st21" d="M51.4,354.8h-3.7c-1.3,0-2.4,1.1-2.4,2.4v3.4"/>
					<line class="st21" x1="52.6" y1="354.8" x2="54.9" y2="354.8"/>
				</g>
				<g>
					<path class="st21" d="M47.5,348.2c0.5-2.7,2.4-4.9,5-5.7"/>
				</g>
				<path class="st21" d="M54.1,342.3c0,0,0.9-0.1,2.1,0.4"/>
			</g>
		</g>
		<line class="st17" x1="8" y1="370.7" x2="206.7" y2="370.7"/>
	</g>
</g>
<g class="st0">
	<g class="st5">
		<g>
			<g>
				<path class="st20" d="M300.9,282.9c0,10.1-8.2,18.3-18.3,18.3c-10.1,0-18.3-8.2-18.3-18.3c0-10.1,8.2-18.3,18.3-18.3
					C292.7,264.6,300.9,272.8,300.9,282.9z"/>
				<path class="st20" d="M297.6,282.9c0,8.3-6.7,15-15,15c-8.3,0-15-6.7-15-15c0-8.3,6.7-15,15-15
					C290.9,267.9,297.6,274.6,297.6,282.9z"/>
				<path class="st9" d="M282.6,264.6c-10.1,0-18.2,8.2-18.2,18.3c0,10.1,8.2,18.3,18.2,18.3V264.6z"/>
				<g>
					<path class="st15" d="M300.9,282.9c0,10.1-8.2,18.3-18.3,18.3c-10.1,0-18.3-8.2-18.3-18.3c0-10.1,8.2-18.3,18.3-18.3
						C292.7,264.6,300.9,272.8,300.9,282.9z"/>
					<path class="st15" d="M297.6,282.9c0,8.3-6.7,15-15,15c-8.3,0-15-6.7-15-15c0-8.3,6.7-15,15-15
						C290.9,267.9,297.6,274.6,297.6,282.9z"/>
				</g>
				<g>
					<g>
						<g>
							<line class="st15" x1="282" y1="264.6" x2="282" y2="267.9"/>
							<line class="st15" x1="282" y1="297.9" x2="282" y2="301.2"/>
						</g>
					</g>
				</g>
				<g>
					<g>
						<g>
							<line class="st15" x1="282" y1="264.6" x2="282" y2="267.9"/>
							<line class="st15" x1="282" y1="297.9" x2="282" y2="301.2"/>
						</g>
					</g>
				</g>
				<g>
					<g>
						<g>
							<line class="st15" x1="301.4" y1="282.9" x2="298.1" y2="282.9"/>
							<line class="st15" x1="268.1" y1="282.9" x2="264.8" y2="282.9"/>
						</g>
					</g>
				</g>
				<g>
					<g>
						<g>
							<line class="st15" x1="301.4" y1="282.9" x2="298.1" y2="282.9"/>
							<line class="st15" x1="268.1" y1="282.9" x2="264.8" y2="282.9"/>
						</g>
					</g>
				</g>
				<g>
					<g>
						<g>
							<line class="st15" x1="296" y1="270" x2="293.7" y2="272.3"/>
							<line class="st15" x1="272.5" y1="293.5" x2="270.2" y2="295.8"/>
						</g>
					</g>
				</g>
				<g>
					<g>
						<g>
							<line class="st15" x1="296" y1="270" x2="293.7" y2="272.3"/>
							<line class="st15" x1="272.5" y1="293.5" x2="270.2" y2="295.8"/>
						</g>
					</g>
				</g>
				<g>
					<g>
						<g>
							<line class="st15" x1="296" y1="295.8" x2="293.7" y2="293.5"/>
							<line class="st15" x1="272.5" y1="272.3" x2="270.2" y2="270"/>
						</g>
					</g>
				</g>
				<g>
					<g>
						<g>
							<line class="st15" x1="296" y1="295.8" x2="293.7" y2="293.5"/>
							<line class="st15" x1="272.5" y1="272.3" x2="270.2" y2="270"/>
						</g>
					</g>
				</g>
				<g>
					<g>
						<g>
							<line class="st15" x1="292.3" y1="267.1" x2="290.6" y2="269.9"/>
							<line class="st15" x1="275.6" y1="295.8" x2="273.9" y2="298.7"/>
						</g>
					</g>
				</g>
				<g>
					<g>
						<g>
							<line class="st15" x1="292.3" y1="267.1" x2="290.6" y2="269.9"/>
							<line class="st15" x1="275.6" y1="295.8" x2="273.9" y2="298.7"/>
						</g>
					</g>
				</g>
				<g>
					<g>
						<g>
							<line class="st15" x1="298.9" y1="292.1" x2="296.1" y2="290.4"/>
							<line class="st15" x1="270.2" y1="275.4" x2="267.3" y2="273.7"/>
						</g>
					</g>
				</g>
				<g>
					<g>
						<g>
							<line class="st15" x1="298.9" y1="292.1" x2="296.1" y2="290.4"/>
							<line class="st15" x1="270.2" y1="275.4" x2="267.3" y2="273.7"/>
						</g>
					</g>
				</g>
				<g>
					<g>
						<g>
							<line class="st15" x1="300.3" y1="278.2" x2="297.1" y2="279"/>
							<line class="st15" x1="268.1" y1="286.7" x2="264.9" y2="287.6"/>
						</g>
					</g>
				</g>
				<g>
					<g>
						<g>
							<line class="st15" x1="300.3" y1="278.2" x2="297.1" y2="279"/>
							<line class="st15" x1="268.1" y1="286.7" x2="264.9" y2="287.6"/>
						</g>
					</g>
				</g>
				<g>
					<g>
						<g>
							<line class="st15" x1="286.7" y1="300.6" x2="285.8" y2="297.4"/>
							<line class="st15" x1="278.1" y1="268.4" x2="277.3" y2="265.2"/>
						</g>
					</g>
				</g>
				<g>
					<g>
						<g>
							<line class="st15" x1="286.7" y1="300.6" x2="285.8" y2="297.4"/>
							<line class="st15" x1="278.1" y1="268.4" x2="277.3" y2="265.2"/>
						</g>
					</g>
				</g>
				<g>
					<g>
						<g>
							<line class="st15" x1="288.2" y1="265.3" x2="287.3" y2="268.5"/>
							<line class="st15" x1="278.9" y1="297.3" x2="278" y2="300.5"/>
						</g>
					</g>
				</g>
				<g>
					<g>
						<g>
							<line class="st15" x1="288.2" y1="265.3" x2="287.3" y2="268.5"/>
							<line class="st15" x1="278.9" y1="297.3" x2="278" y2="300.5"/>
						</g>
					</g>
				</g>
				<g>
					<g>
						<g>
							<line class="st15" x1="300.7" y1="288" x2="297.5" y2="287"/>
							<line class="st15" x1="268.7" y1="278.7" x2="265.5" y2="277.8"/>
						</g>
					</g>
				</g>
				<g>
					<g>
						<g>
							<line class="st15" x1="300.7" y1="288" x2="297.5" y2="287"/>
							<line class="st15" x1="268.7" y1="278.7" x2="265.5" y2="277.8"/>
						</g>
					</g>
				</g>
				<g>
					<g>
						<g>
							<line class="st15" x1="298.6" y1="274.1" x2="295.7" y2="275.7"/>
							<line class="st15" x1="269.5" y1="290.1" x2="266.6" y2="291.7"/>
						</g>
					</g>
				</g>
				<g>
					<g>
						<g>
							<line class="st15" x1="298.6" y1="274.1" x2="295.7" y2="275.7"/>
							<line class="st15" x1="269.5" y1="290.1" x2="266.6" y2="291.7"/>
						</g>
					</g>
				</g>
				<g>
					<g>
						<g>
							<line class="st15" x1="291.9" y1="298.9" x2="290.3" y2="296"/>
							<line class="st15" x1="275.9" y1="269.8" x2="274.3" y2="266.9"/>
						</g>
					</g>
				</g>
				<g>
					<g>
						<g>
							<line class="st15" x1="291.9" y1="298.9" x2="290.3" y2="296"/>
							<line class="st15" x1="275.9" y1="269.8" x2="274.3" y2="266.9"/>
						</g>
					</g>
				</g>
				<g>
					<path class="st21" d="M269.7,283.5c0-7.1,5.8-12.9,12.9-12.9"/>
					<path class="st21" d="M284.6,270.6c0,0,2.4,0.1,4.7,1.7"/>
				</g>
			</g>
			<path class="st8" d="M288.9,284.4c-0.5-0.6-1.3-1.1-2.4-1.4c0.7-0.2,1.3-0.6,1.6-1c0.6-0.6,0.8-1.4,0.8-2.3c0-1.1-0.4-2-1.2-2.7
				c-0.6-0.6-1.4-0.9-2.4-1v-1.4h-1.7v1.3H282v-1.3h-1.7v1.3h-4.8v15.2h4.8v1.3h1.7v-1.3h1.7v1.3h1.7V291c0.1,0,0.3,0,0.5-0.1
				c0.8-0.1,1.4-0.3,1.8-0.5c0.6-0.4,1.1-0.9,1.5-1.5c0.4-0.6,0.6-1.3,0.6-2.1C289.7,285.9,289.4,285,288.9,284.4z M280.3,279h2.1
				c0.7,0,1.2,0.1,1.5,0.4c0.3,0.2,0.4,0.6,0.4,1c0,0.5-0.1,0.8-0.4,1.1c-0.3,0.3-0.8,0.4-1.5,0.4h-2V279z M280.3,287.9v-3.1h2.4
				c0.8,0,1.4,0.1,1.7,0.4c0.3,0.3,0.5,0.6,0.5,1.1c0,0.5-0.2,0.9-0.5,1.2c-0.3,0.3-0.9,0.4-1.7,0.4H280.3z"/>
		</g>
		<g>
			<g>
				<path class="st20" d="M282.4,260.7c0,10.2-8.2,18.4-18.4,18.4c-10.2,0-18.4-8.2-18.4-18.4c0-10.2,8.3-18.4,18.4-18.4
					C274.1,242.3,282.4,250.6,282.4,260.7z"/>
				<path class="st20" d="M279,260.7c0,8.3-6.8,15.1-15.1,15.1c-8.3,0-15.1-6.8-15.1-15.1c0-8.3,6.8-15.1,15.1-15.1
					C272.3,245.6,279,252.4,279,260.7z"/>
				<path class="st9" d="M263.9,242.3c-10.2,0-18.4,8.3-18.4,18.4c0,10.2,8.2,18.4,18.4,18.4V242.3z"/>
				<g>
					<path class="st15" d="M282.4,260.7c0,10.2-8.2,18.4-18.4,18.4c-10.2,0-18.4-8.2-18.4-18.4c0-10.2,8.3-18.4,18.4-18.4
						C274.1,242.3,282.4,250.6,282.4,260.7z"/>
					<path class="st15" d="M279,260.7c0,8.3-6.8,15.1-15.1,15.1c-8.3,0-15.1-6.8-15.1-15.1c0-8.3,6.8-15.1,15.1-15.1
						C272.3,245.6,279,252.4,279,260.7z"/>
				</g>
				<g>
					<g>
						<g>
							<line class="st15" x1="263.3" y1="242.3" x2="263.3" y2="245.6"/>
							<line class="st15" x1="263.3" y1="275.8" x2="263.3" y2="279.2"/>
						</g>
					</g>
				</g>
				<g>
					<g>
						<g>
							<line class="st15" x1="263.3" y1="242.3" x2="263.3" y2="245.6"/>
							<line class="st15" x1="263.3" y1="275.8" x2="263.3" y2="279.2"/>
						</g>
					</g>
				</g>
				<g>
					<g>
						<g>
							<line class="st15" x1="282.9" y1="260.7" x2="279.5" y2="260.7"/>
							<line class="st15" x1="249.3" y1="260.7" x2="246" y2="260.7"/>
						</g>
					</g>
				</g>
				<g>
					<g>
						<g>
							<line class="st15" x1="282.9" y1="260.7" x2="279.5" y2="260.7"/>
							<line class="st15" x1="249.3" y1="260.7" x2="246" y2="260.7"/>
						</g>
					</g>
				</g>
				<g>
					<g>
						<g>
							<line class="st15" x1="277.5" y1="247.7" x2="275.1" y2="250.1"/>
							<line class="st15" x1="253.8" y1="271.4" x2="251.4" y2="273.8"/>
						</g>
					</g>
				</g>
				<g>
					<g>
						<g>
							<line class="st15" x1="277.5" y1="247.7" x2="275.1" y2="250.1"/>
							<line class="st15" x1="253.8" y1="271.4" x2="251.4" y2="273.8"/>
						</g>
					</g>
				</g>
				<g>
					<g>
						<g>
							<line class="st15" x1="277.5" y1="273.8" x2="275.1" y2="271.4"/>
							<line class="st15" x1="253.8" y1="250.1" x2="251.4" y2="247.7"/>
						</g>
					</g>
				</g>
				<g>
					<g>
						<g>
							<line class="st15" x1="277.5" y1="273.8" x2="275.1" y2="271.4"/>
							<line class="st15" x1="253.8" y1="250.1" x2="251.4" y2="247.7"/>
						</g>
					</g>
				</g>
				<g>
					<g>
						<g>
							<line class="st15" x1="273.7" y1="244.8" x2="272" y2="247.7"/>
							<line class="st15" x1="256.9" y1="273.8" x2="255.2" y2="276.7"/>
						</g>
					</g>
				</g>
				<g>
					<g>
						<g>
							<line class="st15" x1="273.7" y1="244.8" x2="272" y2="247.7"/>
							<line class="st15" x1="256.9" y1="273.8" x2="255.2" y2="276.7"/>
						</g>
					</g>
				</g>
				<g>
					<g>
						<g>
							<line class="st15" x1="280.4" y1="270" x2="277.5" y2="268.3"/>
							<line class="st15" x1="251.4" y1="253.2" x2="248.5" y2="251.5"/>
						</g>
					</g>
				</g>
				<g>
					<g>
						<g>
							<line class="st15" x1="280.4" y1="270" x2="277.5" y2="268.3"/>
							<line class="st15" x1="251.4" y1="253.2" x2="248.5" y2="251.5"/>
						</g>
					</g>
				</g>
				<g>
					<g>
						<g>
							<line class="st15" x1="281.7" y1="256" x2="278.5" y2="256.9"/>
							<line class="st15" x1="249.3" y1="264.6" x2="246.1" y2="265.5"/>
						</g>
					</g>
				</g>
				<g>
					<g>
						<g>
							<line class="st15" x1="281.7" y1="256" x2="278.5" y2="256.9"/>
							<line class="st15" x1="249.3" y1="264.6" x2="246.1" y2="265.5"/>
						</g>
					</g>
				</g>
				<g>
					<g>
						<g>
							<line class="st15" x1="268" y1="278.5" x2="267.2" y2="275.3"/>
							<line class="st15" x1="259.4" y1="246.1" x2="258.6" y2="242.9"/>
						</g>
					</g>
				</g>
				<g>
					<g>
						<g>
							<line class="st15" x1="268" y1="278.5" x2="267.2" y2="275.3"/>
							<line class="st15" x1="259.4" y1="246.1" x2="258.6" y2="242.9"/>
						</g>
					</g>
				</g>
				<g>
					<g>
						<g>
							<line class="st15" x1="269.5" y1="243" x2="268.6" y2="246.2"/>
							<line class="st15" x1="260.2" y1="275.2" x2="259.3" y2="278.4"/>
						</g>
					</g>
				</g>
				<g>
					<g>
						<g>
							<line class="st15" x1="269.5" y1="243" x2="268.6" y2="246.2"/>
							<line class="st15" x1="260.2" y1="275.2" x2="259.3" y2="278.4"/>
						</g>
					</g>
				</g>
				<g>
					<g>
						<g>
							<line class="st15" x1="282.1" y1="265.8" x2="278.9" y2="264.9"/>
							<line class="st15" x1="249.9" y1="256.5" x2="246.7" y2="255.6"/>
						</g>
					</g>
				</g>
				<g>
					<g>
						<g>
							<line class="st15" x1="282.1" y1="265.8" x2="278.9" y2="264.9"/>
							<line class="st15" x1="249.9" y1="256.5" x2="246.7" y2="255.6"/>
						</g>
					</g>
				</g>
				<g>
					<g>
						<g>
							<line class="st15" x1="280.1" y1="251.8" x2="277.2" y2="253.4"/>
							<line class="st15" x1="250.7" y1="268" x2="247.8" y2="269.6"/>
						</g>
					</g>
				</g>
				<g>
					<g>
						<g>
							<line class="st15" x1="280.1" y1="251.8" x2="277.2" y2="253.4"/>
							<line class="st15" x1="250.7" y1="268" x2="247.8" y2="269.6"/>
						</g>
					</g>
				</g>
				<g>
					<g>
						<g>
							<line class="st15" x1="273.3" y1="276.9" x2="271.7" y2="273.9"/>
							<line class="st15" x1="257.1" y1="247.5" x2="255.5" y2="244.6"/>
						</g>
					</g>
				</g>
				<g>
					<g>
						<g>
							<line class="st15" x1="273.3" y1="276.9" x2="271.7" y2="273.9"/>
							<line class="st15" x1="257.1" y1="247.5" x2="255.5" y2="244.6"/>
						</g>
					</g>
				</g>
				<g>
					<path class="st21" d="M250.9,261.4c0-7.2,5.8-13,13-13"/>
					<path class="st21" d="M265.9,248.4c0,0,2.4,0.1,4.8,1.7"/>
				</g>
			</g>
			<g>
				<path class="st8" d="M270.3,257.2l-4.1,0.7c-0.2-0.5-0.4-0.9-0.6-1.1c-0.2-0.2-0.4-0.4-0.8-0.6v3.2c2.2,0.6,3.7,1.2,4.5,1.9
					c1,0.9,1.5,2,1.5,3.4c0,0.8-0.2,1.5-0.5,2.2c-0.4,0.7-0.8,1.2-1.4,1.7c-0.6,0.4-1.1,0.8-1.8,1c-0.6,0.2-1.4,0.3-2.3,0.4v2.1
					h-1.6v-2.1c-1.1-0.1-2-0.3-2.6-0.5c-0.7-0.3-1.3-0.6-1.7-1.1c-0.5-0.5-0.9-0.9-1.1-1.5c-0.3-0.5-0.5-1.1-0.6-1.9l4.5-0.5
					c0.1,0.7,0.3,1.3,0.5,1.6c0.2,0.3,0.6,0.6,1.1,0.9V263c-1.5-0.4-2.5-0.8-3.2-1.1c-0.6-0.3-1.2-0.8-1.6-1.5
					c-0.5-0.7-0.7-1.5-0.7-2.4c0-1.3,0.5-2.4,1.4-3.3c0.9-0.9,2.3-1.4,4.1-1.5v-1.1h1.6v1.1c1.7,0.1,2.9,0.5,3.8,1.2
					C269.5,255.1,270,256,270.3,257.2z M263.2,256.1c-0.5,0.2-0.8,0.3-1,0.6c-0.2,0.2-0.3,0.5-0.3,0.8c0,0.3,0.1,0.6,0.3,0.9
					c0.2,0.2,0.5,0.4,1,0.6V256.1z M264.8,267c0.6-0.1,1.1-0.4,1.4-0.7c0.3-0.3,0.4-0.7,0.4-1.1c0-0.3-0.1-0.7-0.4-1
					c-0.2-0.3-0.7-0.6-1.4-0.8V267z"/>
			</g>
		</g>
	</g>
	<g class="st5">
		<g>
			<g>
				<g>
					<g>
						<polyline class="st15" points="308.5,295.8 308.5,276 304.1,269.5 304.1,247.1 						"/>
						<polyline class="st15" points="333.7,295.8 333.7,280.8 338.1,274.3 338.1,247.9 						"/>
					</g>
					<g>
						<polyline class="st15" points="326.3,295.8 326.3,276.8 330.7,272.1 330.7,255.1 						"/>
						<polyline class="st15" points="315.9,295.8 315.9,276.8 311.5,272.1 311.5,255.1 						"/>
					</g>
					<line class="st15" x1="321.1" y1="295.8" x2="321.1" y2="259.9"/>
					<path class="st8" d="M324,262.2c0,1.7-1.4,3.1-3.1,3.1c-1.7,0-3.1-1.4-3.1-3.1c0-1.7,1.4-3.1,3.1-3.1
						C322.6,259.1,324,260.5,324,262.2z"/>
					<path class="st8" d="M314.5,253.4c0,1.7-1.4,3.1-3.1,3.1c-1.7,0-3.1-1.4-3.1-3.1c0-1.7,1.4-3.1,3.1-3.1
						C313.1,250.3,314.5,251.7,314.5,253.4z"/>
					<path class="st8" d="M333.9,253.4c0,1.7-1.4,3.1-3.1,3.1c-1.7,0-3.1-1.4-3.1-3.1c0-1.7,1.4-3.1,3.1-3.1
						C332.5,250.3,333.9,251.7,333.9,253.4z"/>
					<path class="st8" d="M341.3,245.7c0,1.7-1.4,3.1-3.1,3.1c-1.7,0-3.1-1.4-3.1-3.1c0-1.7,1.4-3.1,3.1-3.1
						C339.9,242.5,341.3,243.9,341.3,245.7z"/>
					<path class="st8" d="M307.2,245.7c0,1.7-1.4,3.1-3.1,3.1c-1.7,0-3.1-1.4-3.1-3.1c0-1.7,1.4-3.1,3.1-3.1
						C305.8,242.5,307.2,243.9,307.2,245.7z"/>
				</g>
				<g>
					<g>
						<polyline class="st15" points="333.7,341.9 333.7,361.7 338.1,368.1 338.1,390.5 						"/>
						<polyline class="st15" points="308.5,341.9 308.5,356.8 304.1,363.3 304.1,389.8 						"/>
					</g>
					<g>
						<polyline class="st15" points="315.9,341.9 315.9,360.9 311.5,365.5 311.5,382.6 						"/>
						<polyline class="st15" points="326.3,341.9 326.3,360.9 330.7,365.5 330.7,382.6 						"/>
					</g>
					<line class="st15" x1="321.1" y1="341.9" x2="321.1" y2="377.7"/>
					<path class="st8" d="M318.2,375.4c0-1.7,1.4-3.1,3.1-3.1c1.7,0,3.1,1.4,3.1,3.1c0,1.7-1.4,3.1-3.1,3.1
						C319.6,378.6,318.2,377.2,318.2,375.4z"/>
					<path class="st8" d="M327.7,384.3c0-1.7,1.4-3.1,3.1-3.1c1.7,0,3.1,1.4,3.1,3.1c0,1.7-1.4,3.1-3.1,3.1
						C329.1,387.4,327.7,386,327.7,384.3z"/>
					<path class="st8" d="M308.4,384.3c0-1.7,1.4-3.1,3.1-3.1c1.7,0,3.1,1.4,3.1,3.1c0,1.7-1.4,3.1-3.1,3.1
						C309.8,387.4,308.4,386,308.4,384.3z"/>
					<path class="st8" d="M301,392c0-1.7,1.4-3.1,3.1-3.1c1.7,0,3.1,1.4,3.1,3.1c0,1.7-1.4,3.1-3.1,3.1
						C302.4,395.1,301,393.7,301,392z"/>
					<path class="st8" d="M335,392c0-1.7,1.4-3.1,3.1-3.1c1.7,0,3.1,1.4,3.1,3.1c0,1.7-1.4,3.1-3.1,3.1
						C336.4,395.1,335,393.7,335,392z"/>
				</g>
				<g>
					<g>
						<polyline class="st15" points="297.4,306 277.6,306 271.1,301.6 248.7,301.6 						"/>
						<polyline class="st15" points="297.4,331.2 282.4,331.2 276,335.6 249.5,335.6 						"/>
					</g>
					<g>
						<polyline class="st15" points="297.4,323.8 278.4,323.8 273.8,328.2 256.7,328.2 						"/>
						<polyline class="st15" points="297.4,313.4 278.4,313.4 273.8,309 256.7,309 						"/>
					</g>
					<line class="st15" x1="297.4" y1="318.6" x2="261.5" y2="318.6"/>
					<path class="st8" d="M263.9,321.5c1.7,0,3.1-1.4,3.1-3.1c0-1.7-1.4-3.1-3.1-3.1c-1.7,0-3.1,1.4-3.1,3.1
						C260.7,320.1,262.1,321.5,263.9,321.5z"/>
					<path class="st8" d="M255,312c1.7,0,3.1-1.4,3.1-3.1c0-1.7-1.4-3.1-3.1-3.1c-1.7,0-3.1,1.4-3.1,3.1
						C251.9,310.6,253.3,312,255,312z"/>
					<path class="st8" d="M255,331.3c1.7,0,3.1-1.4,3.1-3.1c0-1.7-1.4-3.1-3.1-3.1c-1.7,0-3.1,1.4-3.1,3.1
						C251.9,329.9,253.3,331.3,255,331.3z"/>
					<path class="st8" d="M247.3,338.7c1.7,0,3.1-1.4,3.1-3.1c0-1.7-1.4-3.1-3.1-3.1c-1.7,0-3.1,1.4-3.1,3.1
						C244.2,337.3,245.5,338.7,247.3,338.7z"/>
					<path class="st8" d="M247.3,304.7c1.7,0,3.1-1.4,3.1-3.1c0-1.7-1.4-3.1-3.1-3.1c-1.7,0-3.1,1.4-3.1,3.1
						C244.2,303.3,245.5,304.7,247.3,304.7z"/>
				</g>
			</g>
			<g>
				<path class="st10" d="M352.2,339.4c0,5.7-4.6,10.3-10.3,10.3h-41.6c-5.7,0-10.3-4.6-10.3-10.3v-41.6c0-5.7,4.6-10.3,10.3-10.3
					h41.6c5.7,0,10.3,4.6,10.3,10.3V339.4z"/>
				<path class="st11" d="M320.7,287.5h-20.4c-5.7,0-10.3,4.6-10.3,10.3v41.6c0,5.7,4.6,10.3,10.3,10.3h20.4V287.5z"/>
				<path class="st8" d="M336.4,320.5c-1.2-1.4-3-2.5-5.5-3.1c1.6-0.6,2.9-1.3,3.7-2.3c1.3-1.5,1.9-3.2,1.9-5.2
					c0-2.4-0.9-4.5-2.7-6.1c-1.4-1.3-3.2-2-5.4-2.3v-3.1h-3.8v3h-3.9v-3h-3.8v3h-10.7v34.4h10.7v3h3.8v-3h3.9v3h3.8v-3.3
					c0.3,0,0.7-0.1,1-0.1c1.8-0.2,3.1-0.6,4-1.1c1.4-0.8,2.6-2,3.4-3.4c0.8-1.4,1.2-3,1.2-4.8C338.1,323.8,337.6,322,336.4,320.5z
					 M317.1,308.4h4.7c1.6,0,2.7,0.3,3.4,0.8c0.7,0.6,1,1.3,1,2.3c0,1.1-0.3,1.9-1,2.5c-0.6,0.6-1.8,0.9-3.5,0.9h-4.6V308.4z
					 M317.1,328.4v-7h5.4c1.9,0,3.2,0.3,3.9,0.9c0.7,0.6,1.1,1.4,1.1,2.5c0,1.1-0.4,2-1.1,2.6c-0.8,0.6-2,1-3.9,1H317.1z"/>
			</g>
		</g>
		<g>
			<path class="st20" d="M388,312.6c-1.2,6.7-3.5,13.5-5.7,19.1c1.3-0.1,3.7,0.2,5,2.6c1.7,3.4,5,10.6,7,15.3h1.9v-20
				C396.2,317.9,390.1,313.7,388,312.6z"/>
			<path class="st10" d="M347.9,312.6c1.2,6.7,3.5,13.5,5.7,19.1c-1.3-0.1-3.7,0.2-5,2.6c-1.7,3.4-5,10.6-7,15.3h-1.9v-20
				C339.7,317.9,345.8,313.7,347.9,312.6z"/>
			<path class="st20" d="M347.9,312.6c1.2,6.7,3.5,13.5,5.7,19.1c-1.3-0.1-3.7,0.2-5,2.6c-1.7,3.4-5,10.6-7,15.3h-1.9v-20
				C339.7,317.9,345.8,313.7,347.9,312.6z"/>
			<path class="st26" d="M364,260.3c-6.1,7.5-17.4,24.2-17.4,43.6c0,16.9,11.8,39.8,11.8,39.8h9.3h9.3c0,0,11.8-22.9,11.8-39.8
				c0-19.3-11.3-36-17.4-43.5C369.3,257.5,366.2,257.5,364,260.3z"/>
			<rect x="358.4" y="343.6" class="st10" width="19.1" height="4.4"/>
			<path class="st20" d="M377.5,348c0,0,9.6,9.8,6.1,23.3c0,0-2.3-6.9-5.4-9.9c0,0,3.4,2.1-3.1,11.6c-6.5,9.5-11.9,17.4-8.6,21.8
				c0,0-13.8-18.9-6.9-32.9c0,0-5.4,8.7-5,14.4c0,0-3.9-17,3.9-28.3H377.5z"/>
			<path class="st9" d="M367.7,386.2V348h-9.3c-7.8,11.4-3.9,28.3-3.9,28.3c-0.4-5.7,5-14.4,5-14.4c-6,12.2,3.7,27.7,6.3,31.9
				C364.8,391.7,365.7,389.3,367.7,386.2z"/>
			<path class="st27" d="M361.6,348c0,0-3.9,3.2-2.8,9.3c0,0,0.6-2.1,3.3-3.3c0,0-1.4,11.4,3.1,17.7c0,0,0.3-9.4,4.2-10.8
				c3.9-1.4,8-6.6,5.7-12.9H361.6z"/>
			<path class="st28" d="M367.6,348h-6c0,0-3.9,3.2-2.8,9.3c0,0,0.6-2.1,3.3-3.3c0,0-1.4,11.4,3.1,17.7c0,0,0.2-6.4,2.4-9.4V348z"/>
			<path class="st19" d="M367.7,258.2c-1.2,0.1-2.5,0.8-3.5,2c-6.1,7.5-17.6,24.2-17.6,43.6c0,16.9,11.9,39.8,11.9,39.8h9.2V258.2z"
				/>
			<path class="st20" d="M367.7,271.1c3.6,0,7-0.9,9.8-2.4c-2.2-3.4-4.3-6.3-6-8.4c-2.2-2.8-5.3-2.8-7.5,0c-1.7,2.1-3.9,5-6,8.5
				C360.8,270.2,364.1,271.1,367.7,271.1z"/>
			<path class="st9" d="M367.2,258.3c0,0-0.1,0-0.1,0c0,0-0.1,0-0.1,0c0,0-0.1,0-0.1,0c0,0-0.1,0-0.1,0c0,0-0.1,0-0.1,0
				c0,0-0.1,0-0.1,0c0,0-0.1,0-0.1,0c0,0-0.1,0-0.1,0c0,0-0.1,0-0.1,0.1c0,0-0.1,0-0.1,0.1c0,0-0.1,0-0.1,0.1c0,0-0.1,0-0.1,0.1
				c0,0-0.1,0-0.1,0.1c0,0-0.1,0-0.1,0.1c0,0-0.1,0-0.1,0.1c0,0-0.1,0.1-0.1,0.1c0,0-0.1,0.1-0.1,0.1c0,0-0.1,0.1-0.1,0.1
				c0,0-0.1,0.1-0.1,0.1c0,0-0.1,0.1-0.1,0.1c0,0-0.1,0.1-0.1,0.1c0,0-0.1,0.1-0.1,0.1c0,0-0.1,0.1-0.1,0.1c0,0-0.1,0.1-0.1,0.1
				c0,0-0.1,0.1-0.1,0.1c0,0-0.1,0.1-0.1,0.1c0,0.1-0.1,0.1-0.1,0.2c0,0,0,0.1-0.1,0.1c-0.1,0.1-0.2,0.2-0.2,0.3c0,0,0,0.1-0.1,0.1
				c-0.1,0.1-0.1,0.2-0.2,0.2c0,0.1-0.1,0.1-0.1,0.2c-0.1,0.1-0.1,0.1-0.2,0.2c0,0.1-0.1,0.1-0.2,0.2c-0.1,0.1-0.1,0.1-0.2,0.2
				c-0.1,0.1-0.1,0.1-0.2,0.2c-0.1,0.1-0.1,0.1-0.2,0.2c-0.1,0.1-0.1,0.2-0.2,0.2c-0.1,0.1-0.1,0.1-0.2,0.2
				c-0.1,0.1-0.1,0.2-0.2,0.3c0,0.1-0.1,0.1-0.1,0.2c-0.1,0.1-0.2,0.2-0.3,0.4c0,0-0.1,0.1-0.1,0.1c-0.1,0.2-0.2,0.3-0.4,0.5
				c0,0,0,0.1-0.1,0.1c-0.1,0.1-0.2,0.3-0.3,0.4c0,0-0.1,0.1-0.1,0.1c-0.1,0.1-0.2,0.3-0.3,0.4c0,0.1-0.1,0.1-0.1,0.2
				c-0.1,0.1-0.2,0.2-0.3,0.4c0,0.1-0.1,0.1-0.1,0.2c-0.1,0.1-0.2,0.3-0.3,0.4c0,0.1-0.1,0.1-0.1,0.2c-0.1,0.1-0.2,0.3-0.3,0.4
				c0,0.1-0.1,0.1-0.1,0.2c-0.1,0.2-0.2,0.3-0.3,0.5c0,0,0,0.1-0.1,0.1c-0.3,0.4-0.5,0.8-0.8,1.2c0,0,0,0,0,0c2.7,1.5,6,2.3,9.5,2.4
				v-12.9c0,0,0,0,0,0c-0.1,0-0.1,0-0.2,0C367.2,258.3,367.2,258.3,367.2,258.3z"/>
			<path class="st20" d="M381.2,300.9c0,7.5-6,13.5-13.5,13.5c-7.5,0-13.5-6-13.5-13.5c0-7.4,6-13.5,13.5-13.5
				C375.2,287.4,381.2,293.5,381.2,300.9z"/>
			<path class="st9" d="M367.8,287.4C367.8,287.4,367.7,287.4,367.8,287.4c-7.5,0-13.5,6-13.5,13.5c0,7.5,6,13.5,13.5,13.5
				c0,0,0,0,0,0V287.4z"/>
			<path class="st10" d="M377.7,300.9c0,5.5-4.5,10-10,10c-5.5,0-10-4.5-10-10c0-5.5,4.5-10,10-10
				C373.3,290.9,377.7,295.4,377.7,300.9z"/>
			<path class="st11" d="M367.8,290.9C367.8,290.9,367.7,290.9,367.8,290.9c-5.6,0-10,4.5-10,10c0,5.5,4.5,10,10,10c0,0,0,0,0,0
				V290.9z"/>
			<g>
				<path class="st20" d="M366.9,353.2c0.1,0.6,0.2,1.3,0.3,1.9h1.5c0.1-0.6,0.2-1.3,0.3-1.9c0.3-1.7,0.5-3.5,0.7-5.2
					c0.3-3.5,0.5-7,0.5-10.5c0-3.5-0.1-7-0.5-10.5c-0.2-1.7-0.4-3.5-0.7-5.2c-0.1-0.7-0.2-1.4-0.4-2.2h-1.4
					c-0.1,0.7-0.3,1.4-0.4,2.2c-0.3,1.7-0.5,3.5-0.7,5.2c-0.3,3.5-0.5,7-0.5,10.5c0,3.5,0.1,7,0.5,10.5
					C366.4,349.7,366.6,351.4,366.9,353.2z"/>
				<path class="st9" d="M367.6,319.6h-0.4c-0.1,0.7-0.3,1.4-0.4,2.2c-0.3,1.7-0.5,3.5-0.7,5.2c-0.3,3.5-0.5,7-0.5,10.5
					c0,3.5,0.1,7,0.5,10.5c0.2,1.7,0.4,3.5,0.7,5.2c0.1,0.6,0.2,1.3,0.3,1.9h0.5V319.6z"/>
			</g>
		</g>
	</g>
</g>
<g>
	<g>
		<g>
			<g>
				<polygon class="st9" points="80,224.1 52.8,249.9 52.8,295 80,295 				"/>
				<polygon class="st11" points="107.2,207.2 98.2,207.2 80,224.1 80,295 107.2,295 				"/>
				<rect x="107.2" y="207.2" class="st9" width="27.2" height="87.8"/>
				<rect x="134.4" y="207.2" class="st11" width="27.2" height="87.8"/>
				<polygon class="st9" points="188.7,185.8 166.1,207.2 161.6,207.2 161.6,295 188.7,295 				"/>
				<polygon class="st11" points="215.9,164.5 211.4,164.5 188.7,185.8 188.7,295 215.9,295 				"/>
				<rect x="215.9" y="164.4" class="st9" width="27.2" height="130.6"/>
				<rect x="243.1" y="164.4" class="st11" width="27.2" height="130.6"/>
				<polygon class="st9" points="297.5,147.3 279.3,164.5 270.3,164.5 270.3,295 297.5,295 				"/>
				<polygon class="st11" points="324.7,121.7 297.5,147.3 297.5,295 324.7,295 				"/>
			</g>
			<polyline class="st15" points="338.7,108.6 279.3,164.5 211.4,164.5 166.1,207.2 98.2,207.2 43.4,258.9 			"/>
			<polygon class="st8" points="308,113.9 346.5,101.3 330.9,136.1 331.3,115.8 			"/>
		</g>
		<g>
			<path class="st10" d="M158.1,148c-1.6,8.7-4.6,17.7-7.4,25c1.7-0.1,4.9,0.2,6.5,3.5c2.2,4.5,6.5,13.9,9.2,20h2.5v-26.2
				C168.8,154.9,160.9,149.5,158.1,148z"/>
			<path class="st10" d="M105.5,148c1.6,8.7,4.6,17.7,7.4,25c-1.7-0.1-4.9,0.2-6.5,3.5c-2.2,4.5-6.5,13.9-9.2,20h-2.5v-26.2
				C94.7,154.9,102.7,149.5,105.5,148z"/>
			<path class="st11" d="M105.5,148c1.6,8.7,4.6,17.7,7.4,25c-1.7-0.1-4.9,0.2-6.5,3.5c-2.2,4.5-6.5,13.9-9.2,20h-2.5v-26.2
				C94.7,154.9,102.7,149.5,105.5,148z"/>
			<path class="st26" d="M126.6,79.3c-7.9,9.9-22.8,31.8-22.8,57.1c0,22.1,15.5,52.2,15.5,52.2h12.2h12.2c0,0,15.5-30.1,15.5-52.2
				c0-25.3-14.8-47.2-22.8-57.1C133.5,75.8,129.5,75.7,126.6,79.3z"/>
			<rect x="119.3" y="188.6" class="st10" width="25" height="5.7"/>
			<path class="st20" d="M144.3,194.4c0,0,12.6,12.8,8,30.6c0,0-3-9.1-7.1-13c0,0,4.5,9.1-4.1,21.5c-8.6,12.5-15.7,19.2-11.2,24.9
				c0,0-18.1-27.4-9.1-45.7c0,0-7.1,11.4-6.6,18.9c0,0-5.2-22.2,5.1-37.2H144.3z"/>
			<path class="st9" d="M131.4,247.1v-52.7h-12.2c-10.2,14.9-5.1,37.2-5.1,37.2c-0.5-7.5,6.6-18.9,6.6-18.9
				c-7.9,16,4.9,38.9,8.3,44.5C127.7,254.3,128.9,251.1,131.4,247.1z"/>
			<path class="st27" d="M123.5,194.4c0,0-5.1,4.1-3.7,12.2c0,0,0.8-2.7,4.4-4.4c0,0-1.9,14.9,4,23.2c0,0,0.4-12.3,5.5-14.1
				c5.1-1.8,10.4-8.7,7.5-16.9H123.5z"/>
			<path class="st28" d="M131.4,194.4h-7.9c0,0-5.1,4.1-3.7,12.2c0,0,0.8-2.7,4.4-4.4c0,0-1.9,14.9,4,23.2c0,0,0.2-8.4,3.2-12.3
				V194.4z"/>
			<path class="st19" d="M131.5,76.7c-1.6,0.1-3.2,1-4.6,2.7c-8,9.9-23.1,31.8-23.1,57.1c0,22.1,15.6,52.2,15.6,52.2h12.1V76.7z"/>
			<path class="st20" d="M131.5,93.5c4.7,0,9.1-1.1,12.8-3.1c-2.8-4.5-5.6-8.2-7.9-11c-2.9-3.6-6.9-3.7-9.8-0.1
				c-2.3,2.8-5.1,6.6-7.9,11.1C122.4,92.4,126.8,93.5,131.5,93.5z"/>
			<path class="st9" d="M130.7,76.7c-0.1,0-0.1,0-0.2,0c-0.1,0-0.1,0-0.2,0c0,0-0.1,0-0.2,0c-0.1,0-0.1,0-0.2,0c-0.1,0-0.1,0-0.2,0
				c0,0-0.1,0-0.2,0.1c-0.1,0-0.1,0-0.2,0.1c0,0-0.1,0-0.1,0.1c-0.1,0-0.1,0-0.1,0.1c-0.1,0-0.1,0-0.2,0.1c-0.1,0-0.1,0.1-0.1,0.1
				c-0.1,0-0.1,0.1-0.1,0.1s-0.1,0.1-0.1,0.1c-0.1,0-0.1,0.1-0.2,0.1c0,0-0.1,0.1-0.1,0.1c-0.1,0-0.1,0.1-0.2,0.1
				c0,0-0.1,0.1-0.1,0.1c-0.1,0-0.1,0.1-0.1,0.1c0,0-0.1,0.1-0.1,0.1c-0.1,0-0.1,0.1-0.1,0.1c0,0-0.1,0.1-0.1,0.1
				c0,0-0.1,0.1-0.1,0.1c0,0.1-0.1,0.1-0.1,0.1c0,0-0.1,0.1-0.1,0.1c0,0.1-0.1,0.1-0.1,0.2c0,0-0.1,0.1-0.1,0.1
				c-0.1,0.1-0.1,0.1-0.2,0.2c0,0-0.1,0.1-0.1,0.1c-0.1,0.1-0.2,0.3-0.3,0.4c0,0,0,0.1-0.1,0.1c-0.1,0.1-0.2,0.2-0.2,0.3
				c-0.1,0.1-0.1,0.1-0.2,0.2c-0.1,0.1-0.2,0.2-0.2,0.3c-0.1,0.1-0.1,0.2-0.2,0.3c-0.1,0.1-0.1,0.2-0.2,0.3
				c-0.1,0.1-0.1,0.2-0.2,0.3c-0.1,0.1-0.2,0.2-0.2,0.3c-0.1,0.1-0.2,0.2-0.2,0.3c-0.1,0.1-0.1,0.2-0.2,0.3
				c-0.1,0.1-0.2,0.2-0.3,0.4c-0.1,0.1-0.1,0.2-0.2,0.2c-0.1,0.2-0.2,0.3-0.3,0.5c0,0.1-0.1,0.1-0.1,0.2c-0.2,0.2-0.3,0.4-0.5,0.7
				c0,0-0.1,0.1-0.1,0.1c-0.1,0.2-0.3,0.4-0.4,0.6c0,0.1-0.1,0.1-0.1,0.2c-0.1,0.2-0.2,0.3-0.3,0.5c-0.1,0.1-0.1,0.2-0.2,0.2
				c-0.1,0.2-0.2,0.3-0.3,0.5c-0.1,0.1-0.1,0.2-0.2,0.2c-0.1,0.2-0.2,0.3-0.3,0.5c-0.1,0.1-0.1,0.2-0.2,0.2
				c-0.1,0.2-0.2,0.4-0.4,0.5c0,0.1-0.1,0.1-0.1,0.2c-0.1,0.2-0.3,0.4-0.4,0.6c0,0,0,0.1-0.1,0.1c-0.3,0.5-0.7,1.1-1,1.6
				c0,0,0,0,0,0c3.6,1.9,7.9,3,12.5,3.1V76.7c0,0,0,0,0,0c-0.1,0-0.2,0-0.3,0C130.8,76.7,130.8,76.7,130.7,76.7z"/>
			<path class="st20" d="M149.2,132.6c0,9.8-7.9,17.7-17.7,17.7s-17.7-7.9-17.7-17.7c0-9.8,7.9-17.7,17.7-17.7
				S149.2,122.9,149.2,132.6z"/>
			<path class="st9" d="M131.6,114.9C131.5,114.9,131.5,114.9,131.6,114.9c-9.8,0-17.7,7.9-17.7,17.7c0,9.8,7.9,17.7,17.7,17.7
				c0,0,0,0,0,0V114.9z"/>
			<path class="st10" d="M144.6,132.6c0,7.2-5.9,13.1-13.1,13.1c-7.2,0-13.1-5.9-13.1-13.1c0-7.2,5.9-13.1,13.1-13.1
				C138.8,119.5,144.6,125.4,144.6,132.6z"/>
			<path class="st11" d="M131.6,119.5C131.5,119.5,131.5,119.5,131.6,119.5c-7.3,0-13.2,5.9-13.2,13.1c0,7.2,5.9,13.1,13.1,13.1
				c0,0,0,0,0,0V119.5z"/>
			<g>
				<path class="st10" d="M130.4,201.1c0.1,0.8,0.3,1.6,0.4,2.5h2c0.2-0.8,0.3-1.6,0.4-2.5c0.4-2.3,0.7-4.6,0.9-6.9
					c0.4-4.6,0.6-9.1,0.6-13.7c0-4.6-0.2-9.1-0.6-13.7c-0.2-2.3-0.5-4.6-0.9-6.9c-0.2-0.9-0.3-1.9-0.5-2.8h-1.9
					c-0.2,0.9-0.3,1.9-0.5,2.8c-0.4,2.3-0.7,4.6-0.9,6.9c-0.4,4.6-0.6,9.1-0.6,13.7c0,4.6,0.2,9.1,0.6,13.7
					C129.7,196.6,130,198.8,130.4,201.1z"/>
				<path class="st11" d="M131.4,157.2h-0.5c-0.2,0.9-0.3,1.9-0.5,2.8c-0.4,2.3-0.7,4.6-0.9,6.9c-0.4,4.6-0.6,9.1-0.6,13.7
					c0,4.6,0.2,9.1,0.6,13.7c0.2,2.3,0.5,4.6,0.9,6.9c0.1,0.8,0.3,1.6,0.4,2.5h0.6V157.2z"/>
			</g>
		</g>
		<g>
			<g>
				<path class="st6" d="M389.8,245.4c0,2.1-1.7,3.8-3.8,3.8h-86.4c-2.1,0-3.8-1.7-3.8-3.8v-40c0-2.1,1.7-3.8,3.8-3.8H386
					c2.1,0,3.8,1.7,3.8,3.8V245.4z"/>
				<path class="st7" d="M342.8,201.5h-43.2c-2.1,0-3.8,1.7-3.8,3.8v40.2c0,2.1,1.7,3.8,3.8,3.8h43.2V201.5z"/>
				<g>
					<path class="st8" d="M353.2,217.5l-6.7,1.1c-0.3-0.9-0.6-1.4-0.9-1.8c-0.3-0.3-0.7-0.7-1.3-1v5.2c3.7,1,6.1,2,7.3,3.1
						c1.6,1.5,2.4,3.3,2.4,5.6c0,1.3-0.3,2.5-0.9,3.6c-0.6,1.1-1.3,2-2.2,2.8c-0.9,0.7-1.9,1.3-2.9,1.6c-1,0.3-2.3,0.5-3.8,0.6v3.4
						h-2.6v-3.4c-1.8-0.2-3.2-0.4-4.3-0.9c-1.1-0.4-2.1-1-2.9-1.7c-0.8-0.7-1.4-1.5-1.9-2.4c-0.4-0.8-0.8-1.9-1-3.1l7.3-0.9
						c0.2,1.2,0.5,2.1,0.9,2.6c0.4,0.5,1,1,1.8,1.4v-6.4c-2.4-0.7-4.2-1.3-5.2-1.8c-1-0.5-1.9-1.3-2.7-2.4c-0.7-1.1-1.1-2.4-1.1-4
						c0-2.1,0.7-3.9,2.3-5.4c1.5-1.4,3.7-2.2,6.7-2.4v-1.8h2.6v1.8c2.7,0.2,4.8,0.8,6.2,1.9C351.8,214,352.8,215.5,353.2,217.5z
						 M341.6,215.7c-0.8,0.3-1.3,0.6-1.6,0.9c-0.3,0.4-0.5,0.8-0.5,1.3c0,0.5,0.2,1,0.5,1.4c0.3,0.4,0.8,0.7,1.6,1V215.7z
						 M344.2,233.5c1-0.2,1.8-0.6,2.3-1.1c0.5-0.5,0.7-1.1,0.7-1.8c0-0.6-0.2-1.1-0.6-1.6c-0.4-0.5-1.2-0.9-2.4-1.3V233.5z"/>
				</g>
				<g>
					<path class="st16" d="M384.2,214.3c-4,0-7.4-3.4-7.4-7.4c0-0.4,0-0.8,0.1-1.1H308c0,0.3,0,0.5,0,0.8c0,4-3.4,7.4-7.4,7.4
						c-0.3,0-0.5,0-0.8,0v22.5c0.3,0,0.5,0,0.8,0c4,0,7.4,3.4,7.4,7.4c0,0.4,0,0.8-0.1,1.2h69.4c0-0.3-0.1-0.7-0.1-1
						c0-4,3.4-7.4,7.4-7.4c0.4,0,0.7,0,1,0.1v-22.5C385.2,214.3,384.7,214.3,384.2,214.3z"/>
					<path class="st16" d="M315.9,225.4c0,7.7,3.3,14.7,8.5,19.6h36.7c5.2-4.9,8.5-11.9,8.5-19.6c0-7.7-3.3-14.7-8.5-19.6h-36.7
						C319.2,210.7,315.9,217.7,315.9,225.4z"/>
				</g>
			</g>
			<g>
				<path class="st10" d="M332.5,289.2c0,3.2-2.6,5.8-5.8,5.8H249c-3.2,0-5.8-2.6-5.8-5.8v-60.9c0-3.2,2.6-5.8,5.8-5.8h77.7
					c3.2,0,5.8,2.6,5.8,5.8V289.2z"/>
				<g>
					<g>
						<g>
							<line class="st29" x1="244.2" y1="225.8" x2="245" y2="225.8"/>
							<line class="st30" x1="248.5" y1="225.8" x2="328.9" y2="225.8"/>
							<line class="st29" x1="330.6" y1="225.8" x2="331.4" y2="225.8"/>
						</g>
					</g>
					<g>
						<g>
							<line class="st29" x1="244.2" y1="291.1" x2="245" y2="291.1"/>
							<line class="st30" x1="248.5" y1="291.1" x2="328.9" y2="291.1"/>
							<line class="st29" x1="330.6" y1="291.1" x2="331.4" y2="291.1"/>
						</g>
					</g>
				</g>
				<g>
					<path class="st10" d="M332.5,250.1h-16.6c-1.8,0-3.3,1.5-3.3,3.3V264c0,1.8,1.5,3.3,3.3,3.3h16.6V250.1z"/>
					<path class="st8" d="M327.2,258.7c0,2.9-2.4,5.3-5.3,5.3c-2.9,0-5.3-2.4-5.3-5.3c0-2.9,2.4-5.3,5.3-5.3
						C324.8,253.4,327.2,255.8,327.2,258.7z"/>
				</g>
				<g>
					<path class="st10" d="M307.6,258.7c0,13.4-10.8,24.2-24.2,24.2c-13.4,0-24.2-10.8-24.2-24.2c0-13.4,10.8-24.2,24.2-24.2
						C296.8,234.5,307.6,245.3,307.6,258.7z"/>
					<g>
						<path class="st8" d="M295.7,250.4l-7.9,1.3c-0.4-1-0.8-1.7-1.1-2.1c-0.3-0.4-0.8-0.8-1.6-1.2v6.1c4.3,1.1,7.2,2.4,8.6,3.6
							c1.9,1.7,2.9,3.9,2.9,6.5c0,1.5-0.3,3-1,4.2c-0.7,1.3-1.6,2.4-2.6,3.2c-1.1,0.9-2.2,1.5-3.4,1.9c-1.2,0.4-2.7,0.6-4.4,0.7v4
							H282v-4c-2.1-0.2-3.8-0.5-5.1-1c-1.3-0.5-2.4-1.2-3.4-2c-0.9-0.9-1.7-1.8-2.2-2.8c-0.5-1-0.9-2.2-1.1-3.6l8.6-1
							c0.3,1.4,0.6,2.4,1,3c0.4,0.6,1.1,1.2,2.1,1.7v-7.5c-2.9-0.8-4.9-1.5-6.1-2.1c-1.2-0.6-2.2-1.5-3.1-2.8
							c-0.9-1.3-1.3-2.8-1.3-4.7c0-2.5,0.9-4.6,2.6-6.3c1.8-1.7,4.4-2.6,7.9-2.8v-2.1h3.1v2.1c3.2,0.2,5.6,0.9,7.3,2.2
							C294,246.4,295.1,248.1,295.7,250.4z M282,248.3c-0.9,0.3-1.5,0.7-1.9,1.1c-0.4,0.4-0.5,1-0.5,1.6c0,0.6,0.2,1.2,0.5,1.6
							c0.4,0.5,1,0.9,1.9,1.2V248.3z M285.1,269.2c1.2-0.3,2.1-0.7,2.6-1.3c0.6-0.6,0.8-1.3,0.8-2.1c0-0.7-0.2-1.3-0.7-1.8
							c-0.5-0.6-1.4-1.1-2.8-1.6V269.2z"/>
					</g>
				</g>
				<path class="st11" d="M283.4,222.4h-35.2c-2.8,0-5.1,2.6-5.1,5.8v60.9c0,3.2,2.3,5.8,5.1,5.8h35.2V222.4z"/>
			</g>
		</g>
	</g>
	<line class="st15" x1="14.7" y1="295" x2="418.5" y2="295"/>
</g>
</svg>
